<?xml version="1.0" encoding="UTF-8" standalone="no"?>
<!-- Generator: Adobe Illustrator 26.3.1, SVG Export Plug-In . SVG Version: 6.00 Build 0)  -->

<svg
   version="1.1"
   id="图层_4"
   x="0px"
   y="0px"
   viewBox="0 0 256 255.99999"
   xml:space="preserve"
   width="256"
   height="256"
   sodipodi:docname="wedot-icon.svg"
   inkscape:version="1.4 (86a8ad7, 2024-10-11)"
   inkscape:export-filename="wedot-icon.png"
   inkscape:export-xdpi="96"
   inkscape:export-ydpi="96"
   xmlns:inkscape="http://www.inkscape.org/namespaces/inkscape"
   xmlns:sodipodi="http://sodipodi.sourceforge.net/DTD/sodipodi-0.dtd"
   xmlns="http://www.w3.org/2000/svg"
   xmlns:svg="http://www.w3.org/2000/svg"
   xmlns:rdf="http://www.w3.org/1999/02/22-rdf-syntax-ns#"
   xmlns:cc="http://creativecommons.org/ns#"
   xmlns:dc="http://purl.org/dc/elements/1.1/"><sodipodi:namedview
   id="namedview1"
   pagecolor="#ffffff"
   bordercolor="#000000"
   borderopacity="0.25"
   inkscape:showpageshadow="2"
   inkscape:pageopacity="0.0"
   inkscape:pagecheckerboard="0"
   inkscape:deskcolor="#d1d1d1"
   inkscape:zoom="4.2929688"
   inkscape:cx="136.26933"
   inkscape:cy="114.95541"
   inkscape:window-width="2560"
   inkscape:window-height="1334"
   inkscape:window-x="-11"
   inkscape:window-y="-11"
   inkscape:window-maximized="1"
   inkscape:current-layer="图层_4" /><title
   id="title1">wedot-icon</title><defs
   id="defs64" />
<style
   type="text/css"
   id="style1">
	.st0{fill:url(#SVGID_1_);}
	.st1{fill:#039BB3;stroke:#FFFFFF;stroke-width:0.9921;stroke-linecap:round;stroke-linejoin:round;stroke-miterlimit:10;}
	.st2{fill:#95D0D4;stroke:#FFFFFF;stroke-width:0.9921;stroke-miterlimit:10;}
	.st3{fill:#C0E7EA;}
	.st4{fill:none;stroke:#FFFFFF;stroke-width:0.9921;stroke-miterlimit:10;}
	.st5{fill:#666364;}
	.st6{fill:#646464;}
	.st7{fill:#45C8DA;stroke:#FFFFFF;stroke-width:0.9921;stroke-linecap:round;stroke-linejoin:round;stroke-miterlimit:10;}
	.st8{fill:#32BBCB;stroke:#FFFFFF;stroke-width:0.9921;stroke-linecap:round;stroke-linejoin:round;stroke-miterlimit:10;}
	.st9{fill:#019CB2;stroke:#FFFFFF;stroke-width:0.9921;stroke-linecap:round;stroke-linejoin:round;stroke-miterlimit:10;}
	.st10{fill:#0086A1;stroke:#FFFFFF;stroke-width:0.9921;stroke-linecap:round;stroke-linejoin:round;stroke-miterlimit:10;}
	.st11{fill:#3FCADD;stroke:#FFFFFF;stroke-width:0.9921;stroke-linecap:round;stroke-linejoin:round;stroke-miterlimit:10;}
	.st12{fill:#4ACADA;stroke:#FFFFFF;stroke-width:0.9921;stroke-linecap:round;stroke-linejoin:round;stroke-miterlimit:10;}
	.st13{fill:#009CB3;stroke:#FFFFFF;stroke-width:0.9921;stroke-linecap:round;stroke-linejoin:round;stroke-miterlimit:10;}
	.st14{fill:#33BCCC;stroke:#FFFFFF;stroke-width:0.9921;stroke-linecap:round;stroke-linejoin:round;stroke-miterlimit:10;}
	.st15{fill:#43CCD4;stroke:#FFFFFF;stroke-width:0.9921;stroke-linecap:round;stroke-linejoin:round;stroke-miterlimit:10;}
	.st16{fill:#4AC6D8;stroke:#FFFFFF;stroke-width:0.9921;stroke-linecap:round;stroke-linejoin:round;stroke-miterlimit:10;}
	.st17{fill:#039BB2;stroke:#FFFFFF;stroke-width:0.9921;stroke-linecap:round;stroke-linejoin:round;stroke-miterlimit:10;}
	.st18{fill:url(#SVGID_00000031918329305661806560000013481626714713804435_);}
	.st19{fill:url(#SVGID_00000052074692473146166420000014073522574086860445_);}
	.st20{fill:url(#SVGID_00000013891789681534132390000007234508302796126619_);}
	.st21{fill:#D9EFF4;}
	.st22{fill:#A6A4AA;}
	.st23{fill:url(#SVGID_00000016037355769388288190000018374799492484434086_);}
	.st24{fill:#59BBC7;}
	.st25{fill:url(#SVGID_00000127013451408738508890000006830396803497918890_);}
	.st26{fill:none;}
	.st27{fill:#039BB3;}
	.st28{fill:#95D0D4;}
	.st29{fill:#45C8DA;}
	.st30{fill:#32BBCB;}
	.st31{fill:#019CB2;}
	.st32{fill:#0086A1;}
	.st33{fill:#3FCADD;}
	.st34{fill:#4ACADA;}
	.st35{fill:#009CB3;}
	.st36{fill:#33BCCC;}
	.st37{fill:#43CCD4;}
	.st38{fill:#4AC6D8;}
	.st39{fill:#039BB2;}
	.st40{fill:url(#SVGID_00000183928788038122311590000008959641642962662031_);}
	.st41{fill:url(#SVGID_00000103254394115248746500000007954516804238988197_);}
	.st42{fill:url(#SVGID_00000075882310996937415320000012932923057009567360_);}
	.st43{fill:url(#SVGID_00000183946555333433480600000016128002491720684683_);}
	.st44{fill:url(#SVGID_00000009557397835014597260000001775053676381569927_);}
	.st45{fill:url(#SVGID_00000101781421024456693840000008756121804441578658_);}
	.st46{fill:url(#SVGID_00000099658145593202827290000002423522037563722629_);}
	.st47{fill:url(#SVGID_00000015330298315246003220000005647962077857602709_);}
	.st48{fill:url(#SVGID_00000017489681196715622890000004793329624792334467_);}
</style>



























<g
   id="g88"
   style="display:inline"
   transform="matrix(1.2328048,0,0,1.2328048,-37.66691,-114.29314)"><path
     class="st1"
     d="m 152.57,131.78 c -21.86,-1.36 -46.44,12.77 -61.46,37.58 -19.31,31.92 -15.63,69.66 7.99,85.3 -2.65,-0.93 -5.21,-2.14 -7.67,-3.63 -24.9,-15.07 -29.46,-53.09 -10.19,-84.93 17.14,-28.31 47.35,-42.2 71.33,-34.32 z"
     id="path8" /><path
     class="st2"
     d="m 182.11,197.11 c 0,29.37 -23.81,53.17 -53.18,53.17 -15.32,0 -29.14,-6.48 -38.84,-16.85 -8.9,-9.5 -14.34,-22.27 -14.34,-36.32 0,-29.37 23.81,-53.18 53.18,-53.18 7.62,0 14.85,1.6 21.4,4.48 18.71,8.24 31.78,26.94 31.78,48.7 z"
     id="path9" /><path
     class="st3"
     d="m 164.67,184.73 c 0,29.37 -23.81,53.18 -53.18,53.18 -7.62,0 -14.85,-1.6 -21.4,-4.48 -8.9,-9.5 -14.34,-22.27 -14.34,-36.32 0,-29.37 23.81,-53.18 53.18,-53.18 7.62,0 14.85,1.6 21.4,4.48 8.9,9.5 14.34,22.27 14.34,36.32 z"
     id="path10" /><path
     class="st4"
     d="m 182.11,197.11 c 0,29.37 -23.81,53.17 -53.18,53.17 -15.32,0 -29.14,-6.48 -38.84,-16.85 -8.9,-9.5 -14.34,-22.27 -14.34,-36.32 0,-29.37 23.81,-53.18 53.18,-53.18 7.62,0 14.85,1.6 21.4,4.48 18.71,8.24 31.78,26.94 31.78,48.7 z"
     id="path11" /><g
     id="g12">
	
		<ellipse
   transform="matrix(0.0934,-0.9956,0.9956,0.0934,-100.1515,253.2146)"
   class="st5"
   cx="88.959999"
   cy="181.60001"
   rx="6.9200001"
   ry="2.97"
   id="ellipse11" />
	
		<ellipse
   transform="matrix(0.0934,-0.9956,0.9956,0.0934,-70.0688,284.4827)"
   class="st5"
   id="ellipse12"
   ry="2.97"
   rx="6.9200001"
   cy="180.72"
   cx="121.17" />
	<path
   class="st6"
   d="m 95.29,192.33 c -0.05,-0.65 0.15,-1.29 0.57,-1.8 0.78,-0.95 2.39,-2.29 5.38,-2.44 2.63,-0.13 4.35,0.64 5.35,1.35 0.75,0.52 1.13,1.43 1.03,2.33 -0.34,3.22 -1.67,11.43 -6.33,11.47 -4.83,0.05 -5.81,-8.2 -6,-10.91 z"
   id="path12" />
</g><path
     class="st7"
     d="m 160.99,112.95 -2.71,3.63 c -2.62,-0.65 -5.29,-1.11 -8,-1.38 l 2.56,-14.86 c 0.06,0 0.11,0 0.17,0.01 h 0.01 l 7.9,6.13 -0.1,6.35 z"
     id="path13" /><path
     class="st1"
     d="M 57.82,222.62 45.5,217.45 v -0.04 l 11.74,-1.7 c 0.09,2.34 0.28,4.64 0.58,6.91 z"
     id="path14" /><path
     class="st1"
     d="m 71.85,255.82 -0.18,0.15 -1.26,2.44 -0.09,-0.04 -5.18,3.29 -9.22,-3.6 c -0.04,-0.06 -0.08,-0.12 -0.11,-0.19 l 11.91,-7.53 c 1.26,1.92 2.63,3.75 4.13,5.48 z"
     id="path15" /><path
     class="st7"
     d="m 197.48,116.9 -1.77,2.55 -6.95,10 -0.01,0.01 -0.73,0.4 -8.57,-2.6 9.65,-13.78 h 0.01 l 1.12,-1.61 c 0.12,0.06 0.24,0.13 0.35,0.21 l 0.01,0.01 z"
     id="path16" /><polygon
     class="st8"
     points="196.89,154.78 211.03,145.57 211.29,145.75 219.75,151.64 213.91,155.67 207.49,160.1 196.89,154.8 "
     id="polygon16" /><path
     class="st9"
     d="m 221.77,194.58 v 0.01 c -0.02,0.09 -0.03,0.17 -0.05,0.26 l -8.72,3.05 -5,1.74 -9.23,-7.76 c 0,-0.02 0.01,-0.03 0,-0.05 l 15.99,-3.77 0.19,-0.04 z"
     id="path17" /><polygon
     class="st10"
     points="194.3,240.67 189.81,239.96 181.85,233.24 196.4,237.46 202.83,242.01 "
     id="polygon17" /><path
     class="st1"
     d="m 145.6,275.68 -1.82,7.56 -1.45,6.03 c -0.03,0.01 -0.05,0.02 -0.07,0.02 l -6.76,-3.03 -0.35,-0.16 -0.57,-15.64 c 0.04,-0.01 0.08,-0.02 0.12,-0.03 z"
     id="path18" /><path
     class="st1"
     d="m 150.12,272.8 -4.52,2.88 -10.9,-5.25 c 3.95,-1.36 7.87,-3.05 11.72,-5.08 l 0.05,0.1 z"
     id="path19" /><polygon
     class="st10"
     points="184.38,248.02 185.94,251.69 189.05,259 181.71,256.44 180.91,256.16 173.89,243.47 "
     id="polygon19" /><path
     class="st10"
     d="m 189.81,239.96 -5.43,8.06 -10.49,-4.55 -0.03,-0.02 c 2.8,-3.19 5.46,-6.61 7.94,-10.24 l 0.05,0.03 z"
     id="path20" /><path
     class="st7"
     d="m 214.76,188.06 c 1.3,-9.8 1.24,-19.41 -0.15,-28.46 l -7.12,0.55 -9.06,0.71 c -0.43,-2.06 -0.94,-4.08 -1.54,-6.06 l -0.01,-0.01 h 0.01 v -0.01 l 14.14,-9.21 0.26,0.18 c -2.72,-8.2 -6.71,-15.69 -11.92,-22.14 l -10.61,5.84 -0.01,0.01 -0.36,0.51 -0.37,-0.11 -3.77,2.07 -0.08,0.07 c -1.49,-1.64 -3.09,-3.19 -4.8,-4.64 l 0.08,-0.1 9.65,-13.78 h 0.01 l 1.12,-1.61 c -4.47,-2.66 -19.14,-8.19 -21.77,-8.95 l -7.47,10.03 -2.71,3.63 c -2.62,-0.65 -5.29,-1.11 -8,-1.38 l 2.56,-14.86 c -9.46,-0.43 -19.23,1.03 -28.86,4.24 l -1.43,13.84 0.09,0.27 c -2.15,0.73 -4.29,1.56 -6.41,2.5 -1.64,0.71 -3.27,1.49 -4.88,2.33 l -0.23,-0.43 -4.9,-10.53 C 97.39,117.61 88.94,124.14 81.25,132 l 0.18,0.18 4.08,11.13 c -2.91,3.12 -5.69,6.48 -8.29,10.06 l -0.08,-0.03 -9.5,-4.83 c -1.17,1.7 -2.31,3.43 -3.42,5.21 -4.08,6.54 -7.48,13.26 -10.21,20.05 l 0.07,0.03 9.36,5.09 c -1.24,3.27 -2.28,6.54 -3.14,9.82 v 0.01 l -11.57,1.37 c -2.28,9.25 -3.34,18.45 -3.23,27.32 l 11.74,-1.7 c 0.09,2.34 0.28,4.64 0.58,6.91 0.09,0.7 0.19,1.39 0.3,2.08 l -11.1,8.62 c 1.64,8.87 4.58,17.17 8.79,24.55 l 11.91,-7.53 c 1.26,1.92 2.63,3.75 4.13,5.48 l -0.18,0.15 -1.26,2.44 -5.84,11.3 -0.09,0.08 c 3.74,4.08 8.03,7.68 12.85,10.69 3.19,1.99 6.5,3.66 9.92,5.01 l 0.06,-0.15 7.76,-13.74 0.04,-0.12 c 2.98,0.98 6.03,1.7 9.15,2.14 l 0.03,2.31 0.16,13.39 1.8,0.5 h 0.01 c 9.55,0.73 19.45,-0.52 29.24,-3.56 l -0.35,-0.16 -0.57,-15.64 v -0.09 l 0.12,0.06 c 3.95,-1.36 7.87,-3.05 11.72,-5.08 l 0.05,0.1 3.65,7.35 2.74,5.53 0.77,0.14 c 10,-5.52 19.54,-12.93 28.08,-22.03 l -0.8,-0.28 -7.02,-12.69 -0.03,-0.02 c 2.8,-3.19 5.46,-6.61 7.94,-10.24 l 0.05,0.03 14.55,4.22 c 0.2,-0.29 0.38,-0.59 0.57,-0.89 5.73,-9.18 10.12,-18.72 13.2,-28.31 l -0.28,-0.16 -4.19,-1.82 -9.19,-3.99 -0.1,-0.03 c 0.99,-3.47 1.78,-6.93 2.36,-10.38 l -0.05,-0.04 0.05,-0.01 z m -43.37,32.6 c -17.37,28.7 -48.16,42.57 -72.29,34 -2.65,-0.93 -5.21,-2.14 -7.67,-3.63 -24.9,-15.07 -29.46,-53.09 -10.19,-84.93 17.14,-28.31 47.35,-42.2 71.33,-34.32 0.01,0 0.02,0 0.02,0 2.98,0.98 5.86,2.3 8.61,3.96 24.9,15.07 29.46,53.09 10.19,84.92 z"
     id="path21" /><path
     class="st11"
     d="m 116.23,121.19 c -1.64,0.71 -3.27,1.49 -4.88,2.33 l -0.23,-0.43 -4.9,-10.53 c 0.05,-0.02 0.09,-0.05 0.14,-0.08 l 9.65,8.21 z"
     id="path22" /><path
     class="st1"
     d="m 104.29,275.93 -8.84,12.13 -0.01,0.05 c -0.95,-0.23 -1.9,-0.49 -2.84,-0.77 -1.81,-0.53 -3.59,-1.15 -5.35,-1.85 l 0.06,-0.15 7.76,-13.74 0.04,-0.12 c 2.98,0.98 6.03,1.7 9.15,2.14 z"
     id="path23" /><path
     class="st12"
     d="m 188.02,129.86 -3.77,2.07 -0.08,0.07 c -1.49,-1.64 -3.09,-3.19 -4.8,-4.64 l 0.08,-0.1 z"
     id="path24" /><path
     class="st1"
     d="m 142.26,289.29 c -8.54,2.56 -17.15,3.76 -25.52,3.48 v -0.04 l -10.48,-2.91 c 9.55,0.73 19.45,-0.52 29.24,-3.56 z"
     id="path25" /><path
     class="st10"
     d="m 189.29,259.22 c -8,8.53 -16.89,15.57 -26.2,20.97 h -0.01 l -9.45,-1.72 c 10,-5.52 19.54,-12.93 28.08,-22.03 l 7.34,2.56 z"
     id="path26" /><path
     class="st13"
     d="m 208,199.64 c 0,0 -1.33,5.11 -2.27,6.56 l -0.03,0.08 -9.19,-3.99 -0.1,-0.03 c 0.99,-3.47 1.78,-6.93 2.36,-10.38 z"
     id="path27" /><path
     class="st14"
     d="m 221.77,194.58 -6.82,-6.56 -0.19,0.04 c 1.3,-9.8 1.24,-19.41 -0.15,-28.46 l 0.08,-0.01 7.94,6.16 c 1.08,9.22 0.8,18.95 -0.86,28.83 z"
     id="path28"
     style="stroke:#ffffff;stroke-width:0.992;stroke-dasharray:none;stroke-opacity:1" /><path
     class="st15"
     d="m 207.49,160.1 v 0.05 l -9.06,0.71 c -0.43,-2.06 -0.94,-4.08 -1.54,-6.06 z"
     id="path29" /><path
     class="st16"
     d="m 219.82,151.62 -0.07,0.02 -8.46,-5.89 c -2.72,-8.2 -6.71,-15.69 -11.92,-22.14 l 0.04,-0.02 11.73,8.62 c 3.77,5.88 6.67,12.41 8.68,19.41 z"
     id="path30" /><path
     class="st17"
     d="m 217.33,212.28 c -3.05,9.17 -7.31,18.29 -12.79,27.07 -0.56,0.9 -1.13,1.78 -1.71,2.66 l -6.43,-4.55 c 0.2,-0.29 0.38,-0.59 0.57,-0.89 5.73,-9.18 10.12,-18.72 13.2,-28.31 l 6.92,3.94 z"
     id="path31" /></g>
<linearGradient
   id="SVGID_00000163789698304475203470000008579991115055182754_"
   gradientUnits="userSpaceOnUse"
   x1="246.1234"
   y1="170.5076"
   x2="308.2323"
   y2="232.6165">
	<stop
   offset="0.25"
   style="stop-color:#45C8DA"
   id="stop31" /><stop
   offset="0.44999999"
   style="stop-color:#73d5e3;stop-opacity:1;"
   id="stop80" /><stop
   offset="0.60000002"
   style="stop-color:#a2e3ec;stop-opacity:1;"
   id="stop68" /><stop
   offset="0.79770708"
   style="stop-color:#d0f1f5;stop-opacity:1;"
   id="stop73" /><stop
   offset="1"
   style="stop-color:#f3fbfc;stop-opacity:1;"
   id="stop87" />
	
</linearGradient>

<linearGradient
   id="SVGID_00000175305928514449291890000003713836498628936102_"
   gradientUnits="userSpaceOnUse"
   x1="313.29871"
   y1="177.35381"
   x2="353.8475"
   y2="217.9025">
	<stop
   offset="0.25"
   style="stop-color:#45C8DA"
   id="stop33" />
	<stop
   offset="0.44999999"
   style="stop-color:#73d5e3;stop-opacity:1;"
   id="stop34" />
	<stop
   offset="0.60000002"
   style="stop-color:#a2e3ec;stop-opacity:1;"
   id="stop35" />
	<stop
   offset="0.80000001"
   style="stop-color:#d0f1f5;stop-opacity:1;"
   id="stop70" /><stop
   offset="1"
   style="stop-color:#f3fbfc;stop-opacity:1;"
   id="stop74" />
	
	
</linearGradient>

<linearGradient
   id="SVGID_00000173848438352162319410000016985232516233593790_"
   gradientUnits="userSpaceOnUse"
   x1="499.935"
   y1="165.77499"
   x2="543.72998"
   y2="209.57001">
	<stop
   offset="0.25"
   style="stop-color:#45C8DA"
   id="stop39" /><stop
   offset="0.44999999"
   style="stop-color:#73d5e3;stop-opacity:1;"
   id="stop82" /><stop
   offset="0.60000002"
   style="stop-color:#a2e3ec;stop-opacity:1;"
   id="stop81" /><stop
   offset="0.80000001"
   style="stop-color:#d0f1f5;stop-opacity:1;"
   id="stop83" /><stop
   offset="1"
   style="stop-color:#f3fbfc;stop-opacity:1;"
   id="stop84" />
	
	
	
	
	
	
</linearGradient>


<linearGradient
   id="SVGID_00000137122532643017480800000003183249135205298071_"
   gradientUnits="userSpaceOnUse"
   x1="365.9632"
   y1="174.9023"
   x2="413.08539"
   y2="222.0246">
	<stop
   offset="0.25"
   style="stop-color:#45C8DA"
   id="stop47" /><stop
   offset="0.44999999"
   style="stop-color:#73d5e3;stop-opacity:1;"
   id="stop71" /><stop
   offset="0.60000002"
   style="stop-color:#a2e3ec;stop-opacity:1;"
   id="stop72" /><stop
   offset="0.80000001"
   style="stop-color:#d0f1f5;stop-opacity:1;"
   id="stop75" /><stop
   offset="1"
   style="stop-color:#f3fbfc;stop-opacity:1;"
   id="stop79" />
	
	
	
	
	
</linearGradient>


<metadata
   id="metadata1"><rdf:RDF><cc:Work
       rdf:about=""><dc:title>wedot-icon</dc:title><dc:date>2024.10.29</dc:date><dc:creator><cc:Agent><dc:title>Xiwoof</dc:title></cc:Agent></dc:creator><dc:publisher><cc:Agent><dc:title>Xiwoof</dc:title></cc:Agent></dc:publisher><dc:subject><rdf:Bag><rdf:li>wedot logo</rdf:li><rdf:li>icon</rdf:li></rdf:Bag></dc:subject><dc:coverage>用于Wedot项目的Logo</dc:coverage><dc:rights><cc:Agent><dc:title>© Xiwoof, Licensed under CC BY 4.0</dc:title></cc:Agent></dc:rights><cc:license
         rdf:resource="https://creativecommons.org/licenses/by/4.0/" /><dc:description>白色描边版本</dc:description></cc:Work></rdf:RDF></metadata></svg>
