<?xml version="1.0" encoding="UTF-8" standalone="no"?>
<!-- Generator: Adobe Illustrator 26.3.1, SVG Export Plug-In . SVG Version: 6.00 Build 0)  -->

<svg
   version="1.1"
   id="图层_4"
   x="0px"
   y="0px"
   viewBox="0 0 256 255.99999"
   xml:space="preserve"
   width="256"
   height="256"
   xmlns="http://www.w3.org/2000/svg"
   xmlns:svg="http://www.w3.org/2000/svg"
   xmlns:rdf="http://www.w3.org/1999/02/22-rdf-syntax-ns#"
   xmlns:cc="http://creativecommons.org/ns#"
   xmlns:dc="http://purl.org/dc/elements/1.1/"><title
   id="title1">wedot-logo_text</title><defs
   id="defs64" />
<style
   type="text/css"
   id="style1">
	.st0{fill:url(#SVGID_1_);}
	.st1{fill:#039BB3;stroke:#FFFFFF;stroke-width:0.9921;stroke-linecap:round;stroke-linejoin:round;stroke-miterlimit:10;}
	.st2{fill:#95D0D4;stroke:#FFFFFF;stroke-width:0.9921;stroke-miterlimit:10;}
	.st3{fill:#C0E7EA;}
	.st4{fill:none;stroke:#FFFFFF;stroke-width:0.9921;stroke-miterlimit:10;}
	.st5{fill:#666364;}
	.st6{fill:#646464;}
	.st7{fill:#45C8DA;stroke:#FFFFFF;stroke-width:0.9921;stroke-linecap:round;stroke-linejoin:round;stroke-miterlimit:10;}
	.st8{fill:#32BBCB;stroke:#FFFFFF;stroke-width:0.9921;stroke-linecap:round;stroke-linejoin:round;stroke-miterlimit:10;}
	.st9{fill:#019CB2;stroke:#FFFFFF;stroke-width:0.9921;stroke-linecap:round;stroke-linejoin:round;stroke-miterlimit:10;}
	.st10{fill:#0086A1;stroke:#FFFFFF;stroke-width:0.9921;stroke-linecap:round;stroke-linejoin:round;stroke-miterlimit:10;}
	.st11{fill:#3FCADD;stroke:#FFFFFF;stroke-width:0.9921;stroke-linecap:round;stroke-linejoin:round;stroke-miterlimit:10;}
	.st12{fill:#4ACADA;stroke:#FFFFFF;stroke-width:0.9921;stroke-linecap:round;stroke-linejoin:round;stroke-miterlimit:10;}
	.st13{fill:#009CB3;stroke:#FFFFFF;stroke-width:0.9921;stroke-linecap:round;stroke-linejoin:round;stroke-miterlimit:10;}
	.st14{fill:#33BCCC;stroke:#FFFFFF;stroke-width:0.9921;stroke-linecap:round;stroke-linejoin:round;stroke-miterlimit:10;}
	.st15{fill:#43CCD4;stroke:#FFFFFF;stroke-width:0.9921;stroke-linecap:round;stroke-linejoin:round;stroke-miterlimit:10;}
	.st16{fill:#4AC6D8;stroke:#FFFFFF;stroke-width:0.9921;stroke-linecap:round;stroke-linejoin:round;stroke-miterlimit:10;}
	.st17{fill:#039BB2;stroke:#FFFFFF;stroke-width:0.9921;stroke-linecap:round;stroke-linejoin:round;stroke-miterlimit:10;}
	.st18{fill:url(#SVGID_00000031918329305661806560000013481626714713804435_);}
	.st19{fill:url(#SVGID_00000052074692473146166420000014073522574086860445_);}
	.st20{fill:url(#SVGID_00000013891789681534132390000007234508302796126619_);}
	.st21{fill:#D9EFF4;}
	.st22{fill:#A6A4AA;}
	.st23{fill:url(#SVGID_00000016037355769388288190000018374799492484434086_);}
	.st24{fill:#59BBC7;}
	.st25{fill:url(#SVGID_00000127013451408738508890000006830396803497918890_);}
	.st26{fill:none;}
	.st27{fill:#039BB3;}
	.st28{fill:#95D0D4;}
	.st29{fill:#45C8DA;}
	.st30{fill:#32BBCB;}
	.st31{fill:#019CB2;}
	.st32{fill:#0086A1;}
	.st33{fill:#3FCADD;}
	.st34{fill:#4ACADA;}
	.st35{fill:#009CB3;}
	.st36{fill:#33BCCC;}
	.st37{fill:#43CCD4;}
	.st38{fill:#4AC6D8;}
	.st39{fill:#039BB2;}
	.st40{fill:url(#SVGID_00000183928788038122311590000008959641642962662031_);}
	.st41{fill:url(#SVGID_00000103254394115248746500000007954516804238988197_);}
	.st42{fill:url(#SVGID_00000075882310996937415320000012932923057009567360_);}
	.st43{fill:url(#SVGID_00000183946555333433480600000016128002491720684683_);}
	.st44{fill:url(#SVGID_00000009557397835014597260000001775053676381569927_);}
	.st45{fill:url(#SVGID_00000101781421024456693840000008756121804441578658_);}
	.st46{fill:url(#SVGID_00000099658145593202827290000002423522037563722629_);}
	.st47{fill:url(#SVGID_00000015330298315246003220000005647962077857602709_);}
	.st48{fill:url(#SVGID_00000017489681196715622890000004793329624792334467_);}
</style>



























<g
   id="g88"
   style="display:inline"
   transform="matrix(0.61192203,0,0,0.61192248,45.76863,-29.051728)"><path
     class="st1"
     d="m 152.57,131.78 c -21.86,-1.36 -46.44,12.77 -61.46,37.58 -19.31,31.92 -15.63,69.66 7.99,85.3 -2.65,-0.93 -5.21,-2.14 -7.67,-3.63 -24.9,-15.07 -29.46,-53.09 -10.19,-84.93 17.14,-28.31 47.35,-42.2 71.33,-34.32 z"
     id="path8" /><path
     class="st2"
     d="m 182.11,197.11 c 0,29.37 -23.81,53.17 -53.18,53.17 -15.32,0 -29.14,-6.48 -38.84,-16.85 -8.9,-9.5 -14.34,-22.27 -14.34,-36.32 0,-29.37 23.81,-53.18 53.18,-53.18 7.62,0 14.85,1.6 21.4,4.48 18.71,8.24 31.78,26.94 31.78,48.7 z"
     id="path9" /><path
     class="st3"
     d="m 164.67,184.73 c 0,29.37 -23.81,53.18 -53.18,53.18 -7.62,0 -14.85,-1.6 -21.4,-4.48 -8.9,-9.5 -14.34,-22.27 -14.34,-36.32 0,-29.37 23.81,-53.18 53.18,-53.18 7.62,0 14.85,1.6 21.4,4.48 8.9,9.5 14.34,22.27 14.34,36.32 z"
     id="path10" /><path
     class="st4"
     d="m 182.11,197.11 c 0,29.37 -23.81,53.17 -53.18,53.17 -15.32,0 -29.14,-6.48 -38.84,-16.85 -8.9,-9.5 -14.34,-22.27 -14.34,-36.32 0,-29.37 23.81,-53.18 53.18,-53.18 7.62,0 14.85,1.6 21.4,4.48 18.71,8.24 31.78,26.94 31.78,48.7 z"
     id="path11" /><g
     id="g12">
	
		<ellipse
   transform="matrix(0.0934,-0.9956,0.9956,0.0934,-100.1515,253.2146)"
   class="st5"
   cx="88.959999"
   cy="181.60001"
   rx="6.9200001"
   ry="2.97"
   id="ellipse11" />
	
		<ellipse
   transform="matrix(0.0934,-0.9956,0.9956,0.0934,-70.0688,284.4827)"
   class="st5"
   id="ellipse12"
   ry="2.97"
   rx="6.9200001"
   cy="180.72"
   cx="121.17" />
	<path
   class="st6"
   d="m 95.29,192.33 c -0.05,-0.65 0.15,-1.29 0.57,-1.8 0.78,-0.95 2.39,-2.29 5.38,-2.44 2.63,-0.13 4.35,0.64 5.35,1.35 0.75,0.52 1.13,1.43 1.03,2.33 -0.34,3.22 -1.67,11.43 -6.33,11.47 -4.83,0.05 -5.81,-8.2 -6,-10.91 z"
   id="path12" />
</g><path
     class="st7"
     d="m 160.99,112.95 -2.71,3.63 c -2.62,-0.65 -5.29,-1.11 -8,-1.38 l 2.56,-14.86 c 0.06,0 0.11,0 0.17,0.01 h 0.01 l 7.9,6.13 -0.1,6.35 z"
     id="path13" /><path
     class="st1"
     d="M 57.82,222.62 45.5,217.45 v -0.04 l 11.74,-1.7 c 0.09,2.34 0.28,4.64 0.58,6.91 z"
     id="path14" /><path
     class="st1"
     d="m 71.85,255.82 -0.18,0.15 -1.26,2.44 -0.09,-0.04 -5.18,3.29 -9.22,-3.6 c -0.04,-0.06 -0.08,-0.12 -0.11,-0.19 l 11.91,-7.53 c 1.26,1.92 2.63,3.75 4.13,5.48 z"
     id="path15" /><path
     class="st7"
     d="m 197.48,116.9 -1.77,2.55 -6.95,10 -0.01,0.01 -0.73,0.4 -8.57,-2.6 9.65,-13.78 h 0.01 l 1.12,-1.61 c 0.12,0.06 0.24,0.13 0.35,0.21 l 0.01,0.01 z"
     id="path16" /><polygon
     class="st8"
     points="211.03,145.57 211.29,145.75 219.75,151.64 213.91,155.67 207.49,160.1 196.89,154.8 196.89,154.78 "
     id="polygon16" /><path
     class="st9"
     d="m 221.77,194.58 v 0.01 c -0.02,0.09 -0.03,0.17 -0.05,0.26 l -8.72,3.05 -5,1.74 -9.23,-7.76 c 0,-0.02 0.01,-0.03 0,-0.05 l 15.99,-3.77 0.19,-0.04 z"
     id="path17" /><polygon
     class="st10"
     points="202.83,242.01 194.3,240.67 189.81,239.96 181.85,233.24 196.4,237.46 "
     id="polygon17" /><path
     class="st1"
     d="m 145.6,275.68 -1.82,7.56 -1.45,6.03 c -0.03,0.01 -0.05,0.02 -0.07,0.02 l -6.76,-3.03 -0.35,-0.16 -0.57,-15.64 c 0.04,-0.01 0.08,-0.02 0.12,-0.03 z"
     id="path18" /><path
     class="st1"
     d="m 150.12,272.8 -4.52,2.88 -10.9,-5.25 c 3.95,-1.36 7.87,-3.05 11.72,-5.08 l 0.05,0.1 z"
     id="path19" /><polygon
     class="st10"
     points="184.38,248.02 185.94,251.69 189.05,259 181.71,256.44 180.91,256.16 173.89,243.47 "
     id="polygon19" /><path
     class="st10"
     d="m 189.81,239.96 -5.43,8.06 -10.49,-4.55 -0.03,-0.02 c 2.8,-3.19 5.46,-6.61 7.94,-10.24 l 0.05,0.03 z"
     id="path20" /><path
     class="st7"
     d="m 214.76,188.06 c 1.3,-9.8 1.24,-19.41 -0.15,-28.46 l -7.12,0.55 -9.06,0.71 c -0.43,-2.06 -0.94,-4.08 -1.54,-6.06 l -0.01,-0.01 h 0.01 v -0.01 l 14.14,-9.21 0.26,0.18 c -2.72,-8.2 -6.71,-15.69 -11.92,-22.14 l -10.61,5.84 -0.01,0.01 -0.36,0.51 -0.37,-0.11 -3.77,2.07 -0.08,0.07 c -1.49,-1.64 -3.09,-3.19 -4.8,-4.64 l 0.08,-0.1 9.65,-13.78 h 0.01 l 1.12,-1.61 c -4.47,-2.66 -19.14,-8.19 -21.77,-8.95 l -7.47,10.03 -2.71,3.63 c -2.62,-0.65 -5.29,-1.11 -8,-1.38 l 2.56,-14.86 c -9.46,-0.43 -19.23,1.03 -28.86,4.24 l -1.43,13.84 0.09,0.27 c -2.15,0.73 -4.29,1.56 -6.41,2.5 -1.64,0.71 -3.27,1.49 -4.88,2.33 l -0.23,-0.43 -4.9,-10.53 C 97.39,117.61 88.94,124.14 81.25,132 l 0.18,0.18 4.08,11.13 c -2.91,3.12 -5.69,6.48 -8.29,10.06 l -0.08,-0.03 -9.5,-4.83 c -1.17,1.7 -2.31,3.43 -3.42,5.21 -4.08,6.54 -7.48,13.26 -10.21,20.05 l 0.07,0.03 9.36,5.09 c -1.24,3.27 -2.28,6.54 -3.14,9.82 v 0.01 l -11.57,1.37 c -2.28,9.25 -3.34,18.45 -3.23,27.32 l 11.74,-1.7 c 0.09,2.34 0.28,4.64 0.58,6.91 0.09,0.7 0.19,1.39 0.3,2.08 l -11.1,8.62 c 1.64,8.87 4.58,17.17 8.79,24.55 l 11.91,-7.53 c 1.26,1.92 2.63,3.75 4.13,5.48 l -0.18,0.15 -1.26,2.44 -5.84,11.3 -0.09,0.08 c 3.74,4.08 8.03,7.68 12.85,10.69 3.19,1.99 6.5,3.66 9.92,5.01 l 0.06,-0.15 7.76,-13.74 0.04,-0.12 c 2.98,0.98 6.03,1.7 9.15,2.14 l 0.03,2.31 0.16,13.39 1.8,0.5 h 0.01 c 9.55,0.73 19.45,-0.52 29.24,-3.56 l -0.35,-0.16 -0.57,-15.64 v -0.09 l 0.12,0.06 c 3.95,-1.36 7.87,-3.05 11.72,-5.08 l 0.05,0.1 3.65,7.35 2.74,5.53 0.77,0.14 c 10,-5.52 19.54,-12.93 28.08,-22.03 l -0.8,-0.28 -7.02,-12.69 -0.03,-0.02 c 2.8,-3.19 5.46,-6.61 7.94,-10.24 l 0.05,0.03 14.55,4.22 c 0.2,-0.29 0.38,-0.59 0.57,-0.89 5.73,-9.18 10.12,-18.72 13.2,-28.31 l -0.28,-0.16 -4.19,-1.82 -9.19,-3.99 -0.1,-0.03 c 0.99,-3.47 1.78,-6.93 2.36,-10.38 l -0.05,-0.04 0.05,-0.01 z m -43.37,32.6 c -17.37,28.7 -48.16,42.57 -72.29,34 -2.65,-0.93 -5.21,-2.14 -7.67,-3.63 -24.9,-15.07 -29.46,-53.09 -10.19,-84.93 17.14,-28.31 47.35,-42.2 71.33,-34.32 0.01,0 0.02,0 0.02,0 2.98,0.98 5.86,2.3 8.61,3.96 24.9,15.07 29.46,53.09 10.19,84.92 z"
     id="path21" /><path
     class="st11"
     d="m 116.23,121.19 c -1.64,0.71 -3.27,1.49 -4.88,2.33 l -0.23,-0.43 -4.9,-10.53 c 0.05,-0.02 0.09,-0.05 0.14,-0.08 l 9.65,8.21 z"
     id="path22" /><path
     class="st1"
     d="m 104.29,275.93 -8.84,12.13 -0.01,0.05 c -0.95,-0.23 -1.9,-0.49 -2.84,-0.77 -1.81,-0.53 -3.59,-1.15 -5.35,-1.85 l 0.06,-0.15 7.76,-13.74 0.04,-0.12 c 2.98,0.98 6.03,1.7 9.15,2.14 z"
     id="path23" /><path
     class="st12"
     d="m 188.02,129.86 -3.77,2.07 -0.08,0.07 c -1.49,-1.64 -3.09,-3.19 -4.8,-4.64 l 0.08,-0.1 z"
     id="path24" /><path
     class="st1"
     d="m 142.26,289.29 c -8.54,2.56 -17.15,3.76 -25.52,3.48 v -0.04 l -10.48,-2.91 c 9.55,0.73 19.45,-0.52 29.24,-3.56 z"
     id="path25" /><path
     class="st10"
     d="m 189.29,259.22 c -8,8.53 -16.89,15.57 -26.2,20.97 h -0.01 l -9.45,-1.72 c 10,-5.52 19.54,-12.93 28.08,-22.03 l 7.34,2.56 z"
     id="path26" /><path
     class="st13"
     d="m 208,199.64 c 0,0 -1.33,5.11 -2.27,6.56 l -0.03,0.08 -9.19,-3.99 -0.1,-0.03 c 0.99,-3.47 1.78,-6.93 2.36,-10.38 z"
     id="path27" /><path
     class="st14"
     d="m 221.77,194.58 -6.82,-6.56 -0.19,0.04 c 1.3,-9.8 1.24,-19.41 -0.15,-28.46 l 0.08,-0.01 7.94,6.16 c 1.08,9.22 0.8,18.95 -0.86,28.83 z"
     id="path28"
     style="stroke:#ffffff;stroke-width:0.992;stroke-dasharray:none;stroke-opacity:1" /><path
     class="st15"
     d="m 207.49,160.1 v 0.05 l -9.06,0.71 c -0.43,-2.06 -0.94,-4.08 -1.54,-6.06 z"
     id="path29" /><path
     class="st16"
     d="m 219.82,151.62 -0.07,0.02 -8.46,-5.89 c -2.72,-8.2 -6.71,-15.69 -11.92,-22.14 l 0.04,-0.02 11.73,8.62 c 3.77,5.88 6.67,12.41 8.68,19.41 z"
     id="path30" /><path
     class="st17"
     d="m 217.33,212.28 c -3.05,9.17 -7.31,18.29 -12.79,27.07 -0.56,0.9 -1.13,1.78 -1.71,2.66 l -6.43,-4.55 c 0.2,-0.29 0.38,-0.59 0.57,-0.89 5.73,-9.18 10.12,-18.72 13.2,-28.31 l 6.92,3.94 z"
     id="path31" /></g>
<linearGradient
   id="SVGID_00000163789698304475203470000008579991115055182754_"
   gradientUnits="userSpaceOnUse"
   x1="246.1234"
   y1="170.5076"
   x2="308.2323"
   y2="232.6165">
	<stop
   offset="0.25"
   style="stop-color:#45C8DA"
   id="stop31" /><stop
   offset="0.44999999"
   style="stop-color:#73d5e3;stop-opacity:1;"
   id="stop80" /><stop
   offset="0.60000002"
   style="stop-color:#a2e3ec;stop-opacity:1;"
   id="stop68" /><stop
   offset="0.79770708"
   style="stop-color:#d0f1f5;stop-opacity:1;"
   id="stop73" /><stop
   offset="1"
   style="stop-color:#f3fbfc;stop-opacity:1;"
   id="stop87" />
	
</linearGradient>

<linearGradient
   id="SVGID_00000175305928514449291890000003713836498628936102_"
   gradientUnits="userSpaceOnUse"
   x1="313.29871"
   y1="177.35381"
   x2="353.8475"
   y2="217.9025">
	<stop
   offset="0.25"
   style="stop-color:#45C8DA"
   id="stop33" />
	<stop
   offset="0.44999999"
   style="stop-color:#73d5e3;stop-opacity:1;"
   id="stop34" />
	<stop
   offset="0.60000002"
   style="stop-color:#a2e3ec;stop-opacity:1;"
   id="stop35" />
	<stop
   offset="0.80000001"
   style="stop-color:#d0f1f5;stop-opacity:1;"
   id="stop70" /><stop
   offset="1"
   style="stop-color:#f3fbfc;stop-opacity:1;"
   id="stop74" />
	
	
</linearGradient>

<linearGradient
   id="SVGID_00000173848438352162319410000016985232516233593790_"
   gradientUnits="userSpaceOnUse"
   x1="499.935"
   y1="165.77499"
   x2="543.72998"
   y2="209.57001">
	<stop
   offset="0.25"
   style="stop-color:#45C8DA"
   id="stop39" /><stop
   offset="0.44999999"
   style="stop-color:#73d5e3;stop-opacity:1;"
   id="stop82" /><stop
   offset="0.60000002"
   style="stop-color:#a2e3ec;stop-opacity:1;"
   id="stop81" /><stop
   offset="0.80000001"
   style="stop-color:#d0f1f5;stop-opacity:1;"
   id="stop83" /><stop
   offset="1"
   style="stop-color:#f3fbfc;stop-opacity:1;"
   id="stop84" />
	
	
	
	
	
	
</linearGradient>


<linearGradient
   id="SVGID_00000137122532643017480800000003183249135205298071_"
   gradientUnits="userSpaceOnUse"
   x1="365.9632"
   y1="174.9023"
   x2="413.08539"
   y2="222.0246">
	<stop
   offset="0.25"
   style="stop-color:#45C8DA"
   id="stop47" /><stop
   offset="0.44999999"
   style="stop-color:#73d5e3;stop-opacity:1;"
   id="stop71" /><stop
   offset="0.60000002"
   style="stop-color:#a2e3ec;stop-opacity:1;"
   id="stop72" /><stop
   offset="0.80000001"
   style="stop-color:#d0f1f5;stop-opacity:1;"
   id="stop75" /><stop
   offset="1"
   style="stop-color:#f3fbfc;stop-opacity:1;"
   id="stop79" />
	
	
	
	
	
</linearGradient>
<g
   id="g90"
   style="display:inline"
   transform="matrix(0.61192203,0,0,0.61192248,-114.41291,60.281877)"><path
     style="fill:url(#SVGID_00000173848438352162319410000016985232516233593790_)"
     d="m 550.57,173.12 v 7.49 l -3.74,3.74 h -17.1 v 39.22 l -3.35,3.35 h -8.59 l -3.35,-3.35 v -39.22 h -18.11 c -1.46,-1.46 -2.28,-2.28 -3.74,-3.74 v -7.49 c 1.46,-1.46 2.28,-2.28 3.74,-3.74 h 50.5 z"
     id="path45" /><g
     id="g89"><g
       id="g8">
	<g
   id="g7">
		<linearGradient
   id="SVGID_1_"
   gradientUnits="userSpaceOnUse"
   x1="440.31921"
   y1="177.80341"
   x2="480.69131"
   y2="218.17551">
			<stop
   offset="0.25"
   style="stop-color:#45C8DA"
   id="stop1" /><stop
   offset="0.44999999"
   style="stop-color:#73d5e3;stop-opacity:1;"
   id="stop85" /><stop
   offset="0.60000002"
   style="stop-color:#a2e3ec;stop-opacity:1;"
   id="stop76" /><stop
   offset="0.80000001"
   style="stop-color:#d0f1f5;stop-opacity:1;"
   id="stop77" /><stop
   offset="1"
   style="stop-color:#f3fbfc;stop-opacity:1;"
   id="stop78" />
			
			
			
			
			
			
		</linearGradient>
		<path
   class="st0"
   d="m 460.51,169.44 c -15.77,0 -28.55,12.78 -28.55,28.55 0,15.77 12.78,28.55 28.55,28.55 15.77,0 28.55,-12.78 28.55,-28.55 -0.01,-15.77 -12.79,-28.55 -28.55,-28.55 z m 16.06,31.14 h -3 c -0.17,0.97 -0.44,1.91 -0.82,2.8 l 2.6,1.5 c -0.55,1.23 -1.24,2.38 -2.05,3.42 l -2.6,-1.51 c -0.61,0.74 -1.3,1.41 -2.05,1.99 l 1.5,2.6 c -1.06,0.79 -2.22,1.45 -3.45,1.97 l -1.5,-2.61 c -0.87,0.34 -1.79,0.59 -2.74,0.74 v 2.99 c -0.67,0.09 -1.36,0.13 -2.05,0.13 -0.65,0 -1.3,-0.04 -1.93,-0.11 v -3 c -0.96,-0.14 -1.88,-0.38 -2.75,-0.71 l -1.5,2.61 c -1.24,-0.51 -2.41,-1.17 -3.48,-1.95 l 1.5,-2.59 c -0.77,-0.59 -1.47,-1.27 -2.09,-2.01 l -2.6,1.5 c -0.82,-1.04 -1.52,-2.19 -2.06,-3.41 l 2.59,-1.49 c -0.39,-0.91 -0.67,-1.86 -0.84,-2.86 h -3 c -0.11,-0.76 -0.17,-1.53 -0.17,-2.31 0,-0.56 0.03,-1.12 0.08,-1.67 h 3 c 0.12,-1.04 0.37,-2.03 0.72,-2.98 l -2.6,-1.5 c 0.5,-1.24 1.16,-2.41 1.94,-3.48 l 2.59,1.5 c 0.64,-0.83 1.38,-1.58 2.19,-2.24 l -1.5,-2.6 c 1.05,-0.8 2.2,-1.48 3.43,-2.02 l 1.5,2.6 c 0.96,-0.39 1.98,-0.67 3.05,-0.82 v -3 c 0.63,-0.07 1.28,-0.11 1.93,-0.11 0.69,0 1.38,0.04 2.05,0.13 v 2.99 c 1.06,0.17 2.07,0.46 3.03,0.85 l 1.5,-2.59 c 1.22,0.54 2.37,1.22 3.41,2.04 l -1.5,2.59 c 0.8,0.66 1.52,1.41 2.14,2.23 l 2.59,-1.5 c 0.78,1.07 1.43,2.24 1.93,3.49 l -2.6,1.5 c 0.34,0.93 0.58,1.91 0.7,2.92 h 3 c 0.05,0.55 0.08,1.11 0.08,1.67 0,0.78 -0.06,1.55 -0.17,2.31 z"
   id="path7"
   style="fill:url(#SVGID_1_)" />
	</g>
</g><g
       id="g47">
	<circle
   class="st21"
   cx="460.41"
   cy="198.27"
   r="10.14"
   id="circle45" />
	<g
   id="g46">
		<ellipse
   class="st22"
   cx="457.14999"
   cy="195.73"
   rx="0.63"
   ry="1.27"
   id="ellipse45" />
		<ellipse
   class="st22"
   cx="463.5"
   cy="195.73"
   rx="0.63"
   ry="1.27"
   id="ellipse46" />
		<path
   class="st22"
   d="m 459.61,198.33 h 1.49 c 0.39,0 0.63,0.42 0.44,0.76 l -0.72,1.27 c -0.19,0.34 -0.67,0.34 -0.87,0.01 l -0.77,-1.27 c -0.21,-0.33 0.04,-0.77 0.43,-0.77 z"
   id="path46" />
	</g>
</g></g><path
     style="fill:url(#SVGID_00000137122532643017480800000003183249135205298071_)"
     d="m 396.05,169.76 h -24.94 c -1.47,1.47 -2.3,2.29 -3.76,3.76 v 49.89 c 1.46,1.47 2.29,2.29 3.76,3.76 h 24.94 c 7.93,0 15.11,-3.21 20.3,-8.41 5.2,-5.19 8.41,-12.37 8.41,-20.3 0,-15.85 -12.85,-28.7 -28.71,-28.7 z m 0,43.24 h -11.3 c -1.26,-1.27 -1.97,-1.97 -3.23,-3.23 v -22.61 l 3.23,-3.23 h 10.88 c 7.82,0 14.55,6 14.94,13.8 0.41,8.35 -6.26,15.27 -14.52,15.27 z"
     id="path52" /><path
     style="fill:url(#SVGID_00000175305928514449291890000003713836498628936102_)"
     d="m 362.11,193.93 c -1.83,-14.1 -13.89,-24.99 -28.49,-24.99 -15.87,0 -28.74,12.86 -28.74,28.73 0,15.87 12.87,28.74 28.74,28.74 6.98,0 13.37,-2.49 18.34,-6.62 l -0.15,-4.18 -7.1,-7.39 h -2.54 c -2.34,1.89 -5.31,3.03 -8.55,3.03 -6.14,0 -11.32,-4.07 -13,-9.66 h 37.82 l 3.9,-3.11 c 0.02,-0.27 0.02,-0.54 0.02,-0.81 0,-1.27 -0.08,-2.52 -0.25,-3.74 z m -41.57,0.08 c 1.6,-5.72 6.85,-9.92 13.08,-9.92 6.23,0 11.48,4.2 13.07,9.92 z"
     id="path38" /><polygon
     style="fill:url(#SVGID_00000163789698304475203470000008579991115055182754_)"
     points="285.02,169.47 296.48,169.47 299.39,173.11 293.17,223.95 290.42,227.45 277.35,227.45 270.81,191.26 264.08,227.17 251.39,227.17 248.74,223.66 241.73,172.98 245.33,169.47 256.6,169.57 261.05,202.63 267.21,169.66 274.79,169.66 280.95,202.73 "
     id="polygon32" /></g>
<g
   id="g64"
   transform="matrix(0.61192203,0,0,0.61192248,-82.151286,60.281877)">
	<g
   id="g53">
		<path
   class="st24"
   d="m 378.86,263.2 c 1,-0.25 1.87,-0.49 2.76,-0.69 0.14,-0.03 0.38,0.04 0.45,0.14 1.03,1.48 2.54,1.92 4.23,2.01 1.57,0.08 2.88,-0.46 3.78,-1.75 0.3,-0.43 0.51,-0.99 0.54,-1.51 0.07,-1.31 0.02,-2.62 0.02,-4.01 -0.11,0.08 -0.18,0.12 -0.22,0.17 -1.19,2.06 -3.97,2.79 -6.04,2.42 -2.23,-0.39 -3.97,-1.51 -5.09,-3.5 -0.72,-1.28 -1.21,-2.66 -1.25,-4.13 -0.04,-1.53 -0.13,-3.1 0.13,-4.6 0.45,-2.57 1.66,-4.72 4.13,-5.96 2.13,-1.07 6.14,-1.15 8,1.41 0.06,0.08 0.13,0.16 0.29,0.36 0,-0.77 0,-1.38 0,-2.07 1,0 1.97,-0.01 2.94,0.02 0.11,0 0.31,0.26 0.31,0.39 -0.02,6.74 -0.03,13.48 -0.09,20.22 -0.01,1.13 -0.57,2.1 -1.32,2.94 -1.36,1.54 -3.09,2.26 -5.11,2.44 -2.01,0.18 -3.92,-0.15 -5.71,-1.08 -1.32,-0.67 -2.18,-1.77 -2.75,-3.22 z m 2.11,-12.49 c 0.26,1.17 0.43,2.45 0.85,3.65 0.69,1.93 2.75,3.2 4.66,2.91 2.03,-0.31 3.37,-1.47 3.77,-3.65 0.37,-2 0.34,-4.05 0.02,-6.07 -0.43,-2.64 -2.28,-4.02 -4.85,-3.56 -1.95,0.35 -3.3,1.46 -3.8,3.42 -0.27,1.04 -0.42,2.11 -0.65,3.3 z"
   id="path53" />
	</g>
	<g
   id="g54">
		<path
   class="st24"
   d="m 301.35,259.6 c -1.07,0 -2.04,0 -3.12,0 0,-0.29 0,-0.58 0,-0.86 -0.03,-3.94 -0.06,-7.88 -0.1,-11.83 -0.01,-1.33 -0.68,-2.31 -1.88,-2.76 -1.31,-0.49 -2.61,-0.35 -3.68,0.73 -0.72,0.72 -1.03,1.56 -1.03,2.56 0.01,3.8 0,7.59 0,11.39 0,0.25 0,0.49 0,0.77 -1.07,0 -2.06,0 -3.09,0 0,-6.02 0,-12.03 0,-18.08 0.89,0 1.76,0 2.69,0 0,0.48 0,0.94 0,1.44 1.37,-1.38 3,-1.99 4.86,-1.88 1.93,0.11 3.33,1.18 4.31,2.65 0.75,-0.66 1.43,-1.42 2.26,-1.95 2.27,-1.45 5.61,-0.63 7.25,1.55 0.77,1.03 1.22,2.17 1.22,3.46 0.03,4.07 0.04,8.14 0.05,12.21 0,0.19 -0.03,0.38 -0.06,0.59 -1.02,0 -2.01,0 -3.03,0 -0.02,-0.4 -0.05,-0.8 -0.05,-1.19 0,-3.73 -0.06,-7.46 0.03,-11.19 0.05,-1.99 -1.9,-3.8 -4.06,-3.18 -1.79,0.51 -2.53,1.74 -2.54,3.24 -0.03,3.82 -0.02,7.63 -0.03,11.45 0,0.27 0,0.54 0,0.88 z"
   id="path54" />
	</g>
	<g
   id="g55">
		<path
   class="st24"
   d="m 264.34,251.09 c -2.28,0 -4.49,0 -6.76,0 0,-0.88 -0.02,-1.69 0.02,-2.51 0.01,-0.11 0.27,-0.31 0.42,-0.31 3.02,-0.02 6.03,-0.02 9.05,0 0.15,0 0.44,0.23 0.43,0.34 -0.09,2.28 -0.59,4.47 -1.65,6.49 -0.94,1.79 -2.32,3.15 -4.17,3.98 -3.29,1.49 -6.56,1.39 -9.73,-0.31 -2.07,-1.11 -3.46,-2.88 -4.31,-5.05 -1.07,-2.74 -1.3,-5.59 -0.88,-8.47 0.19,-1.32 0.45,-2.68 0.94,-3.91 1.08,-2.72 2.98,-4.7 5.81,-5.7 1.21,-0.43 2.46,-0.62 3.73,-0.62 1.77,0.01 3.43,0.46 4.96,1.33 1.9,1.07 3.23,2.66 4.15,4.65 -0.82,0.37 -1.62,0.76 -2.44,1.09 -0.11,0.04 -0.41,-0.15 -0.48,-0.3 -0.68,-1.34 -1.66,-2.39 -3.01,-3.05 -1.53,-0.74 -3.13,-0.93 -4.81,-0.58 -2.86,0.59 -4.47,2.47 -5.3,5.12 -1.03,3.31 -0.94,6.59 0.48,9.77 1.41,3.16 3.78,4.23 6.93,4.07 3.02,-0.16 5.01,-1.87 6.12,-4.63 0.09,-0.21 0.18,-0.43 0.25,-0.64 0.08,-0.21 0.14,-0.43 0.25,-0.76 z"
   id="path55" />
	</g>
	<g
   id="g56">
		<path
   class="st24"
   d="m 328.04,253.92 c 0.87,0.57 1.72,1.12 2.61,1.69 -1.7,2.24 -3.63,4 -6.61,4.3 -2.21,0.22 -4.33,0.09 -6.24,-1.1 -2.07,-1.28 -3.2,-3.21 -3.65,-5.6 -0.38,-2.01 -0.38,-4 0.15,-5.97 0.47,-1.76 1.27,-3.36 2.75,-4.5 1.64,-1.26 3.54,-1.73 5.59,-1.69 2.2,0.04 4.15,0.75 5.72,2.31 0.95,0.95 1.63,2.12 1.92,3.44 0.3,1.37 0.43,2.78 0.63,4.17 0.06,0.43 -0.09,0.61 -0.55,0.61 -4.16,-0.01 -8.33,0 -12.49,0 -0.21,0 -0.42,0 -0.63,0 0,1.88 0.92,4.05 2.5,4.91 1.49,0.81 3.08,0.83 4.68,0.46 1.68,-0.38 2.61,-1.73 3.62,-3.03 z m -0.51,-5.19 c -0.5,-3.82 -3.32,-5.26 -6.38,-4.72 -2.38,0.41 -3.8,2.71 -3.83,4.72 3.4,0 6.78,0 10.21,0 z"
   id="path56" />
	</g>
	<g
   id="g57">
		<path
   class="st24"
   d="m 344,251.63 c -0.26,1.82 1.05,4.33 2.67,5.04 1.49,0.65 3.04,0.67 4.6,0.24 1.6,-0.44 2.49,-1.7 3.44,-2.97 0.87,0.56 1.71,1.1 2.61,1.68 -1.77,2.21 -3.64,4.04 -6.64,4.3 -2.01,0.17 -3.91,0.08 -5.74,-0.83 -1.92,-0.95 -3.11,-2.56 -3.76,-4.51 -0.92,-2.76 -0.92,-5.58 0.1,-8.33 1.03,-2.79 3.01,-4.48 5.98,-5.02 2.05,-0.37 3.99,-0.16 5.85,0.76 2.09,1.04 3.31,2.81 3.88,4.99 0.34,1.27 0.4,2.62 0.57,3.94 0.06,0.49 -0.09,0.69 -0.66,0.68 -4.12,-0.03 -8.24,-0.02 -12.36,-0.02 -0.18,0.01 -0.37,0.03 -0.54,0.05 z m 10.18,-2.9 c -0.58,-3.99 -3.14,-4.91 -5.44,-4.83 -3.48,0.13 -4.62,2.79 -4.77,4.83 3.4,0 6.79,0 10.21,0 z"
   id="path57" />
	</g>
	<g
   id="g58">
		<path
   class="st24"
   d="m 437.53,253.94 c 0.87,0.57 1.69,1.11 2.55,1.68 -1.67,2.22 -3.56,3.96 -6.46,4.29 -1.76,0.2 -3.45,0.13 -5.12,-0.47 -1.82,-0.65 -3.19,-1.88 -3.99,-3.58 -1.62,-3.45 -1.66,-6.99 -0.04,-10.47 1.29,-2.78 3.63,-4.07 6.6,-4.28 1.66,-0.12 3.28,0.06 4.79,0.86 2.05,1.08 3.26,2.8 3.92,4.97 0.46,1.49 0.57,3.02 0.49,4.65 -4.52,0 -9.03,0 -13.53,0 -0.09,1.84 0.83,4.09 2.61,5.01 1.46,0.76 3.04,0.78 4.63,0.34 1.63,-0.47 2.58,-1.75 3.55,-3 z m -10.74,-5.21 c 3.41,0 6.77,0 10.14,0 -0.4,-3.22 -2.19,-4.79 -5.12,-4.83 -3.19,-0.05 -4.81,2.12 -5.02,4.83 z"
   id="path58" />
	</g>
	<g
   id="g59">
		<path
   class="st24"
   d="m 270.61,245.47 c 0.29,-1.2 1.03,-2 1.87,-2.72 2.1,-1.78 4.58,-2.16 7.1,-1.41 2.38,0.71 3.99,2.45 4.53,4.93 0.31,1.39 0.48,2.84 0.52,4.27 0.08,2.99 0.02,5.98 0.02,9.03 -0.85,0 -1.68,0 -2.58,0 0,-0.79 0,-1.6 0,-2.56 -0.98,1.27 -2.13,2.06 -3.49,2.51 -2.16,0.71 -4.31,0.91 -6.34,-0.4 -1.71,-1.1 -2.6,-3.27 -2.25,-5.28 0.39,-2.2 1.81,-3.51 3.8,-4.15 1.98,-0.64 4.03,-1.08 6.06,-1.54 1.66,-0.37 1.8,-1.33 0.9,-2.59 -1.72,-2.39 -5.59,-2.37 -7.12,0.64 -0.24,0.47 -0.38,0.52 -0.83,0.26 -0.68,-0.38 -1.42,-0.65 -2.19,-0.99 z m 11.3,5.1 c -1.86,0.45 -3.65,0.82 -5.4,1.32 -0.89,0.26 -1.78,0.65 -2.54,1.18 -0.82,0.56 -0.96,1.58 -0.63,2.5 0.37,1.01 1.12,1.5 2.15,1.59 1.97,0.18 3.63,-0.48 4.86,-2.03 1.01,-1.29 1.62,-2.76 1.56,-4.56 z"
   id="path59" />
	</g>
	<g
   id="g60">
		<path
   class="st24"
   d="m 408.81,259.62 c -0.92,0 -1.81,0.02 -2.69,-0.02 -0.14,-0.01 -0.29,-0.25 -0.4,-0.41 -0.05,-0.07 -0.01,-0.21 -0.01,-0.31 0,-5.58 -0.01,-11.15 -0.01,-16.73 0,-0.19 0.02,-0.37 0.04,-0.6 0.93,0 1.83,0 2.77,0 0,0.68 0,1.33 0,2.09 0.18,-0.15 0.3,-0.22 0.38,-0.31 1.54,-1.84 3.53,-2.42 5.85,-2.12 3.37,0.44 5.86,3.68 5.81,6.87 -0.06,3.63 -0.01,7.25 -0.02,10.88 0,0.21 -0.02,0.41 -0.03,0.67 -0.93,0 -1.81,0.02 -2.7,-0.02 -0.13,0 -0.3,-0.22 -0.36,-0.37 -0.06,-0.14 -0.02,-0.33 -0.02,-0.5 0,-3.69 0,-7.38 0,-11.07 0,-1.33 -1.14,-2.92 -2.54,-3.42 -2.21,-0.8 -4.7,0.16 -5.61,2.34 -0.29,0.68 -0.43,1.47 -0.43,2.21 -0.05,3.58 -0.03,7.16 -0.03,10.82 z"
   id="path60" />
	</g>
	<g
   id="g61">
		<path
   class="st24"
   d="m 375.25,259.6 c -1.05,0 -2.02,0 -3.07,0 0,-0.28 0,-0.52 0,-0.77 0,-3.54 0,-7.08 0,-10.62 0,-1.87 -0.85,-3.25 -2.58,-3.94 -1.48,-0.6 -2.93,-0.35 -4.25,0.6 -1.4,1 -1.78,2.45 -1.79,4.04 -0.03,3.54 -0.01,7.08 -0.01,10.67 -1.02,0 -2.03,0 -3.07,0 0,-5.99 0,-11.98 0,-18.02 0.91,0 1.81,0 2.75,0 0,0.69 0,1.36 0,2.11 0.51,-0.47 0.93,-0.91 1.41,-1.29 1.46,-1.17 3.13,-1.43 4.95,-1.16 2.11,0.31 3.58,1.53 4.7,3.22 0.83,1.25 1.01,2.71 1.01,4.19 -0.01,3.52 -0.01,7.04 -0.01,10.56 -0.01,0.12 -0.03,0.24 -0.04,0.41 z"
   id="path61" />
	</g>
	
	<g
   id="g87"><g
     id="g62">
		<path
   class="st24"
   d="m 401.26,259.6 c -1.02,0 -2.01,0 -3.06,0 0,-0.24 0,-0.45 0,-0.65 0,-5.62 0.02,-11.24 0,-16.85 0,-0.49 0.14,-0.61 0.61,-0.59 0.8,0.04 1.6,0.01 2.45,0.01 0,6.03 0,12.02 0,18.08 z"
   id="path62" />
	</g><g
     id="g63">
		<path
   class="st24"
   d="m 401.79,236.64 c -0.01,1.12 -0.87,2 -2.02,1.97 -1.34,-0.03 -1.99,-0.83 -2.07,-2.09 -0.07,-1.11 0.94,-2 2.1,-1.98 1.16,0.01 2,0.91 1.99,2.1 z"
   id="path63" />
	</g></g>
</g>
<metadata
   id="metadata1"><rdf:RDF><cc:Work
       rdf:about=""><dc:title>wedot-logo_text</dc:title><dc:date>2024.10.29</dc:date><dc:creator><cc:Agent><dc:title>Xiwoof</dc:title></cc:Agent></dc:creator><dc:rights><cc:Agent><dc:title>© Xiwoof, Licensed under CC BY 4.0</dc:title></cc:Agent></dc:rights><dc:publisher><cc:Agent><dc:title>Xiwoof</dc:title></cc:Agent></dc:publisher><dc:subject><rdf:Bag><rdf:li>wedot logo</rdf:li><rdf:li>icon</rdf:li></rdf:Bag></dc:subject><dc:coverage>用于Wedot项目的Logo</dc:coverage><dc:description>此为wedot项目的logo，带文字白色描边版本</dc:description><cc:license
         rdf:resource="https://creativecommons.org/licenses/by/4.0/" /></cc:Work></rdf:RDF></metadata></svg>
