<?xml version="1.0" encoding="UTF-8" standalone="no"?>
<!-- Generator: Adobe Illustrator 26.3.1, SVG Export Plug-In . SVG Version: 6.00 Build 0)  -->

<svg
   version="1.1"
   id="图层_4"
   x="0px"
   y="0px"
   viewBox="0 0 256 255.99999"
   xml:space="preserve"
   width="256"
   height="256"
   sodipodi:docname="wedot-icon_transparent.svg"
   inkscape:version="1.4 (86a8ad7, 2024-10-11)"
   xmlns:inkscape="http://www.inkscape.org/namespaces/inkscape"
   xmlns:sodipodi="http://sodipodi.sourceforge.net/DTD/sodipodi-0.dtd"
   xmlns="http://www.w3.org/2000/svg"
   xmlns:svg="http://www.w3.org/2000/svg"
   xmlns:rdf="http://www.w3.org/1999/02/22-rdf-syntax-ns#"
   xmlns:cc="http://creativecommons.org/ns#"
   xmlns:dc="http://purl.org/dc/elements/1.1/"><sodipodi:namedview
   id="namedview1"
   pagecolor="#ffffff"
   bordercolor="#000000"
   borderopacity="0.25"
   inkscape:showpageshadow="2"
   inkscape:pageopacity="0.0"
   inkscape:pagecheckerboard="0"
   inkscape:deskcolor="#d1d1d1"
   inkscape:zoom="2.1464844"
   inkscape:cx="-6.9881711"
   inkscape:cy="138.13285"
   inkscape:window-width="2560"
   inkscape:window-height="1334"
   inkscape:window-x="-11"
   inkscape:window-y="-11"
   inkscape:window-maximized="1"
   inkscape:current-layer="图层_4" /><title
   id="title1">wedot-icon_transparent</title><defs
   id="defs64" />
<style
   type="text/css"
   id="style1">
	.st0{fill:url(#SVGID_1_);}
	.st1{fill:#039BB3;stroke:#FFFFFF;stroke-width:0.9921;stroke-linecap:round;stroke-linejoin:round;stroke-miterlimit:10;}
	.st2{fill:#95D0D4;stroke:#FFFFFF;stroke-width:0.9921;stroke-miterlimit:10;}
	.st3{fill:#C0E7EA;}
	.st4{fill:none;stroke:#FFFFFF;stroke-width:0.9921;stroke-miterlimit:10;}
	.st5{fill:#666364;}
	.st6{fill:#646464;}
	.st7{fill:#45C8DA;stroke:#FFFFFF;stroke-width:0.9921;stroke-linecap:round;stroke-linejoin:round;stroke-miterlimit:10;}
	.st8{fill:#32BBCB;stroke:#FFFFFF;stroke-width:0.9921;stroke-linecap:round;stroke-linejoin:round;stroke-miterlimit:10;}
	.st9{fill:#019CB2;stroke:#FFFFFF;stroke-width:0.9921;stroke-linecap:round;stroke-linejoin:round;stroke-miterlimit:10;}
	.st10{fill:#0086A1;stroke:#FFFFFF;stroke-width:0.9921;stroke-linecap:round;stroke-linejoin:round;stroke-miterlimit:10;}
	.st11{fill:#3FCADD;stroke:#FFFFFF;stroke-width:0.9921;stroke-linecap:round;stroke-linejoin:round;stroke-miterlimit:10;}
	.st12{fill:#4ACADA;stroke:#FFFFFF;stroke-width:0.9921;stroke-linecap:round;stroke-linejoin:round;stroke-miterlimit:10;}
	.st13{fill:#009CB3;stroke:#FFFFFF;stroke-width:0.9921;stroke-linecap:round;stroke-linejoin:round;stroke-miterlimit:10;}
	.st14{fill:#33BCCC;stroke:#FFFFFF;stroke-width:0.9921;stroke-linecap:round;stroke-linejoin:round;stroke-miterlimit:10;}
	.st15{fill:#43CCD4;stroke:#FFFFFF;stroke-width:0.9921;stroke-linecap:round;stroke-linejoin:round;stroke-miterlimit:10;}
	.st16{fill:#4AC6D8;stroke:#FFFFFF;stroke-width:0.9921;stroke-linecap:round;stroke-linejoin:round;stroke-miterlimit:10;}
	.st17{fill:#039BB2;stroke:#FFFFFF;stroke-width:0.9921;stroke-linecap:round;stroke-linejoin:round;stroke-miterlimit:10;}
	.st18{fill:url(#SVGID_00000031918329305661806560000013481626714713804435_);}
	.st19{fill:url(#SVGID_00000052074692473146166420000014073522574086860445_);}
	.st20{fill:url(#SVGID_00000013891789681534132390000007234508302796126619_);}
	.st21{fill:#D9EFF4;}
	.st22{fill:#A6A4AA;}
	.st23{fill:url(#SVGID_00000016037355769388288190000018374799492484434086_);}
	.st24{fill:#59BBC7;}
	.st25{fill:url(#SVGID_00000127013451408738508890000006830396803497918890_);}
	.st26{fill:none;}
	.st27{fill:#039BB3;}
	.st28{fill:#95D0D4;}
	.st29{fill:#45C8DA;}
	.st30{fill:#32BBCB;}
	.st31{fill:#019CB2;}
	.st32{fill:#0086A1;}
	.st33{fill:#3FCADD;}
	.st34{fill:#4ACADA;}
	.st35{fill:#009CB3;}
	.st36{fill:#33BCCC;}
	.st37{fill:#43CCD4;}
	.st38{fill:#4AC6D8;}
	.st39{fill:#039BB2;}
	.st40{fill:url(#SVGID_00000183928788038122311590000008959641642962662031_);}
	.st41{fill:url(#SVGID_00000103254394115248746500000007954516804238988197_);}
	.st42{fill:url(#SVGID_00000075882310996937415320000012932923057009567360_);}
	.st43{fill:url(#SVGID_00000183946555333433480600000016128002491720684683_);}
	.st44{fill:url(#SVGID_00000009557397835014597260000001775053676381569927_);}
	.st45{fill:url(#SVGID_00000101781421024456693840000008756121804441578658_);}
	.st46{fill:url(#SVGID_00000099658145593202827290000002423522037563722629_);}
	.st47{fill:url(#SVGID_00000015330298315246003220000005647962077857602709_);}
	.st48{fill:url(#SVGID_00000017489681196715622890000004793329624792334467_);}
</style>




























<linearGradient
   id="SVGID_00000163789698304475203470000008579991115055182754_"
   gradientUnits="userSpaceOnUse"
   x1="246.1234"
   y1="170.5076"
   x2="308.2323"
   y2="232.6165">
	<stop
   offset="0.25"
   style="stop-color:#45C8DA"
   id="stop31" /><stop
   offset="0.44999999"
   style="stop-color:#73d5e3;stop-opacity:1;"
   id="stop80" /><stop
   offset="0.60000002"
   style="stop-color:#a2e3ec;stop-opacity:1;"
   id="stop68" /><stop
   offset="0.79770708"
   style="stop-color:#d0f1f5;stop-opacity:1;"
   id="stop73" /><stop
   offset="1"
   style="stop-color:#f3fbfc;stop-opacity:1;"
   id="stop87" />
	
</linearGradient>

<linearGradient
   id="SVGID_00000175305928514449291890000003713836498628936102_"
   gradientUnits="userSpaceOnUse"
   x1="313.29871"
   y1="177.35381"
   x2="353.8475"
   y2="217.9025">
	<stop
   offset="0.25"
   style="stop-color:#45C8DA"
   id="stop33" />
	<stop
   offset="0.44999999"
   style="stop-color:#73d5e3;stop-opacity:1;"
   id="stop34" />
	<stop
   offset="0.60000002"
   style="stop-color:#a2e3ec;stop-opacity:1;"
   id="stop35" />
	<stop
   offset="0.80000001"
   style="stop-color:#d0f1f5;stop-opacity:1;"
   id="stop70" /><stop
   offset="1"
   style="stop-color:#f3fbfc;stop-opacity:1;"
   id="stop74" />
	
	
</linearGradient>

<linearGradient
   id="SVGID_00000173848438352162319410000016985232516233593790_"
   gradientUnits="userSpaceOnUse"
   x1="499.935"
   y1="165.77499"
   x2="543.72998"
   y2="209.57001">
	<stop
   offset="0.25"
   style="stop-color:#45C8DA"
   id="stop39" /><stop
   offset="0.44999999"
   style="stop-color:#73d5e3;stop-opacity:1;"
   id="stop82" /><stop
   offset="0.60000002"
   style="stop-color:#a2e3ec;stop-opacity:1;"
   id="stop81" /><stop
   offset="0.80000001"
   style="stop-color:#d0f1f5;stop-opacity:1;"
   id="stop83" /><stop
   offset="1"
   style="stop-color:#f3fbfc;stop-opacity:1;"
   id="stop84" />
	
	
	
	
	
	
</linearGradient>


<linearGradient
   id="SVGID_00000137122532643017480800000003183249135205298071_"
   gradientUnits="userSpaceOnUse"
   x1="365.9632"
   y1="174.9023"
   x2="413.08539"
   y2="222.0246">
	<stop
   offset="0.25"
   style="stop-color:#45C8DA"
   id="stop47" /><stop
   offset="0.44999999"
   style="stop-color:#73d5e3;stop-opacity:1;"
   id="stop71" /><stop
   offset="0.60000002"
   style="stop-color:#a2e3ec;stop-opacity:1;"
   id="stop72" /><stop
   offset="0.80000001"
   style="stop-color:#d0f1f5;stop-opacity:1;"
   id="stop75" /><stop
   offset="1"
   style="stop-color:#f3fbfc;stop-opacity:1;"
   id="stop79" />
	
	
	
	
	
</linearGradient>


<metadata
   id="metadata1"><rdf:RDF><cc:Work
       rdf:about=""><dc:title>wedot-icon_transparent</dc:title><dc:date>2024.10.29</dc:date><dc:creator><cc:Agent><dc:title>Xiwoof</dc:title></cc:Agent></dc:creator><dc:rights><cc:Agent><dc:title>© Xiwoof, Licensed under CC BY 4.0</dc:title></cc:Agent></dc:rights><dc:publisher><cc:Agent><dc:title>Xiwoof</dc:title></cc:Agent></dc:publisher><dc:subject><rdf:Bag><rdf:li>wedot logo</rdf:li><rdf:li>icon</rdf:li></rdf:Bag></dc:subject><dc:coverage>用于Wedot项目的Logo</dc:coverage><dc:description>此为wedot的logo，透明描边版本</dc:description><cc:license
         rdf:resource="https://creativecommons.org/licenses/by/4.0/" /></cc:Work></rdf:RDF></metadata><g
   id="g68"
   style="display:inline"
   transform="matrix(1.2316146,0,0,1.2316127,-37.534119,-114.07016)"><path
     class="st26"
     d="m 160.9425,136.17049 c -2.66999,-1.61 -5.50999,-2.92 -8.43999,-3.89 -13.67,-0.84 -27.88,4.27 -40.2,13.81 5.24,-1.71 10.82,-2.65 16.63,-2.65 7.50999,0 14.78,1.52 21.6,4.52 17.22999,7.59 29.06,23.54 31.56999,41.84 0.86001,-6.01 0.97,-12 0.27001,-17.83 -1.91,-15.87 -9.52001,-28.59 -21.43001,-35.8 z"
     id="path8-4"
     style="fill:none" /><path
     class="st26"
     d="m 141.5125,249.28049 c -4.04,0.97 -8.25,1.5 -12.59,1.5 -14.79999,0 -29.089994,-6.2 -39.199998,-17.01 -4.36,-4.66 -7.8,-9.99 -10.23,-15.74 0,0.01 0,0.02 0,0.03 1.5,15.81 8.54,28.65 19.820004,36.14 13.389994,4.75 28.479994,2.61 42.199994,-4.92 z"
     id="path9-8"
     style="fill:none" /><path
     class="st27"
     d="m 91.692502,250.61049 c 0.62,0.37 1.24,0.73 1.88,1.07 0.21,0.11 0.42,0.21 0.64,0.32 0.43,0.22 0.85,0.44 1.29,0.64 0.02,0.01 0.05,0.02 0.07,0.03 -9.66,-7.85 -15.67,-19.95 -17.05,-34.51 -0.1,-1.07 -0.17,-2.15 -0.22,-3.23 -1.99,-5.66 -3.04,-11.67 -3.04,-17.81 0,-22.72 14.19,-42.17 34.169998,-49.99 11.85,-9.9 25.67,-15.66 39.19,-15.92 -0.11,-0.02 -0.22,-0.05 -0.32,-0.07 -0.6,-0.13 -1.2,-0.25 -1.8,-0.36 -0.19,-0.03 -0.38,-0.07 -0.57,-0.1 -0.74,-0.12 -1.48,-0.23 -2.22,-0.31 -0.11,-0.01 -0.23,-0.02 -0.34,-0.03 -0.65,-0.07 -1.3,-0.12 -1.96,-0.16 -0.2,-0.01 -0.41,-0.02 -0.61,-0.03 -0.76,-0.04 -1.52,-0.06 -2.28,-0.06 -20.88,0 -43.169998,13.7 -56.839998,36.29 -19.11,31.54 -14.62,69.33 10.01,84.23 z"
     id="path10-8"
     style="fill:#039bb3" /><path
     class="st28"
     d="m 170.9625,220.41049 c 5.18,-8.56 8.73,-17.72 10.52,-26.92 -1.31,-19.05 -12.88999,-36.01 -30.32,-44.14 8.40001,9.4 13.51,21.79 13.51,35.39 0,29.37 -23.81,53.18 -53.18,53.18 -7.17,0 -13.989998,-1.43 -20.229998,-4 9.869998,10.1 23.530008,15.87 37.669998,15.87 5.56,0 10.93,-0.87 15.96,-2.48 10.01,-6.25 19.12,-15.41 26.07,-26.9 z"
     id="path11-2"
     style="fill:#95d0d4" /><path
     class="st3"
     d="m 164.6725,184.74049 c 0,-13.6 -5.11,-25.99 -13.51,-35.39 -0.34,-0.16 -0.69,-0.33 -1.03999,-0.48 -6.7,-2.94 -13.83001,-4.44 -21.2,-4.44 -29.050004,0 -52.680008,23.63 -52.680008,52.68 0,13.42 5.04,26.2 14.21,35.98 0.26,0.28 0.54,0.54 0.81,0.82 6.24,2.57 13.060008,4 20.230008,4 29.37,0.01 53.18,-23.8 53.17999,-53.17 z m -46.46,-4.29 c 0.36,-3.8 1.97,-6.76 3.61,-6.61 1.63,0.15 2.67,3.36 2.31,7.16 -0.36,3.8 -1.97,6.76 -3.61,6.61 -1.62999,-0.15 -2.65999,-3.36 -2.31,-7.16 z m -26.289998,1.44 c -0.36,3.8 -1.97,6.76 -3.61,6.61 -1.63,-0.15 -2.67,-3.36 -2.31,-7.16 0.36,-3.8 1.97,-6.76 3.61,-6.61 1.63,0.15 2.67,3.35 2.31,7.16 z m 9.379998,21.37 c -4.839998,0.04 -5.819998,-8.21 -6.009998,-10.92 -0.05,-0.65 0.15,-1.29 0.57,-1.8 0.78,-0.95 2.39,-2.29 5.379998,-2.44 2.63,-0.13 4.35,0.64 5.35,1.35 0.75,0.52 1.13,1.43 1.03,2.33 -0.34,3.23 -1.67,11.44 -6.32,11.48 z"
     id="path12-4"
     style="fill:#c0e7ea" /><path
     class="st5"
     d="m 89.612502,174.72049 c -1.63,-0.15 -3.25,2.81 -3.61,6.61 -0.36,3.8 0.68,7.01 2.31,7.16 1.63,0.15 3.25,-2.81 3.61,-6.61 0.36,-3.8 -0.68,-7 -2.31,-7.16 z"
     id="path13-5"
     style="fill:#666364" /><path
     class="st5"
     d="m 120.53251,187.61049 c 1.62999,0.15 3.25,-2.81 3.61,-6.61 0.36,-3.8 -0.68001,-7.01 -2.31001,-7.16 -1.62999,-0.15 -3.25,2.81 -3.61,6.61 -0.35999,3.8 0.67001,7.01 2.31001,7.16 z"
     id="path14-5"
     style="fill:#666364" /><path
     class="st6"
     d="m 106.59251,189.46049 c -1.01001,-0.7 -2.73,-1.47 -5.35,-1.35 -2.990008,0.14 -4.610008,1.49 -5.380008,2.44 -0.41,0.51 -0.61,1.14 -0.57,1.8 0.19,2.7 1.16,10.96 6.010008,10.92 4.65,-0.04 5.98,-8.25 6.33,-11.47 0.09,-0.92 -0.29,-1.82 -1.04,-2.34 z"
     id="path15-1"
     style="fill:#646464" /><path
     class="st29"
     d="m 153.2125,101.13049 -2.35,13.64 c 2.44,0.27 4.86,0.69 7.22,1.26 l 2.27,-3.04 c -0.01,-0.05 -0.02,-0.1 -0.02,-0.15 l 0.1,-6.1 z"
     id="path16-7"
     style="fill:#45c8da" /><path
     class="st27"
     d="m 56.772502,216.29049 -9.5,1.38 9.95,4.18 c -0.06,-0.51 -0.11,-1.04 -0.16,-1.56 -0.03,-0.31 -0.07,-0.62 -0.09,-0.94 -0.09,-1.02 -0.16,-2.03 -0.2,-3.06 z"
     id="path17-1"
     style="fill:#039bb3" /><path
     class="st27"
     d="m 67.572502,251.03049 -10.81,6.84 8.32,3.24 4.97,-3.16 c 0.02,-0.01 0.03,-0.02 0.05,-0.03 l 1.09,-2.11 c -1.26,-1.47 -2.48,-3.08 -3.62,-4.78 z"
     id="path18-1"
     style="fill:#039bb3" /><path
     class="st29"
     d="m 190.3725,112.55049 -0.85,1.22 c -0.02,0.03 -0.04,0.05 -0.06,0.07 l -9.21,13.15 7.71,2.34 0.46,-0.25 8.37,-12.05 z"
     id="path19-5"
     style="fill:#45c8da" /><polygon
     class="st30"
     points="211.91,158.29 214.37,159.52 225.8,151.63 217.94,146.16 204.79,154.73 "
     id="polygon19-2"
     style="fill:#32bbcb"
     transform="translate(-6.9174987,0.01049333)" /><polygon
     class="st31"
     points="206.72,192.09 215.02,199.08 227.96,194.56 225.55,192.25 221.72,188.56 "
     id="polygon20"
     style="fill:#019cb2"
     transform="translate(-6.9174987,0.01049333)" /><polygon
     class="st32"
     points="203.1,237.91 190.87,234.36 196.94,239.49 207.73,241.19 "
     id="polygon21"
     style="fill:#0086a1"
     transform="translate(-6.9174987,0.01049333)" /><polygon
     class="st27"
     points="147.31,287.91 148.9,288.62 151.94,275.95 142.02,271.17 142.55,285.77 "
     id="polygon22"
     style="fill:#039bb3"
     transform="translate(-6.9174987,0.01049333)" /><path
     class="st27"
     d="m 146.2025,266.03049 c -0.87,0.45 -1.74,0.88 -2.62,1.3 -0.3,0.14 -0.6,0.27 -0.9,0.41 -0.58,0.27 -1.17,0.54 -1.75,0.8 -0.36,0.16 -0.73,0.31 -1.1,0.46 -0.53,0.22 -1.06,0.44 -1.59,0.65 -0.39,0.15 -0.78,0.3 -1.17,0.44 -0.36,0.14 -0.72,0.28 -1.08,0.41 l 9.58,4.61 3.91,-2.49 z"
     id="path22-7"
     style="fill:#039bb3" /><polygon
     class="st32"
     points="181.95,244.5 188.17,255.75 195.07,258.16 190.92,248.39 "
     id="polygon23"
     style="fill:#0086a1"
     transform="translate(-6.9174987,0.01049333)" /><path
     class="st32"
     d="m 189.1525,240.06049 -7.25,-6.12 c -0.46,0.67 -0.93,1.33 -1.41,1.99 -0.1,0.13 -0.19,0.27 -0.28,0.4 -0.6,0.82 -1.21,1.63 -1.83,2.43 -0.12,0.16 -0.25,0.32 -0.38,0.48 -0.5,0.63 -0.99,1.26 -1.5,1.88 -0.22,0.27 -0.44,0.52 -0.66,0.79 -0.39,0.46 -0.77,0.93 -1.16,1.38 l 9.53,4.13 z"
     id="path23-6"
     style="fill:#0086a1" /><path
     class="st29"
     d="m 153.5425,277.96049 c 0.88,-0.49 1.75,-1 2.62,-1.52 0.34001,-0.2 0.69,-0.39 1.03,-0.6 1.23,-0.75 2.45,-1.52 3.65001,-2.32 0.28999,-0.19 0.56,-0.39 0.84999,-0.59 0.91,-0.62 1.83001,-1.24 2.73,-1.89 0.45,-0.32 0.89,-0.67 1.33001,-1 0.72999,-0.54 1.44999,-1.07 2.16999,-1.63 0.49,-0.39 0.98,-0.79 1.47,-1.19 0.65,-0.53 1.31,-1.05 1.95,-1.59 0.51,-0.43 1.01,-0.88 1.51,-1.32 0.61,-0.53 1.22,-1.06 1.83,-1.61 0.51,-0.47 1.01,-0.95 1.51,-1.43 0.58,-0.55 1.17,-1.09 1.74,-1.66 0.5,-0.49 0.99,-1 1.48,-1.5 0.47,-0.48 0.95,-0.96 1.42,-1.45 l -0.07,-0.02 c -0.12,-0.04 -0.21,-0.12 -0.27,-0.23 l -7,-12.65 c -0.05,-0.07 -0.09,-0.15 -0.1,-0.23 -0.02,-0.14 0.01,-0.29 0.1,-0.4 2.82,-3.21 5.47,-6.64 7.9,-10.19 0.15,-0.22 0.44,-0.28 0.67,-0.14 l 14.13,4.09 c 0.07,-0.11 0.15,-0.22 0.22,-0.33 l 0.15,-0.24 c 0.69,-1.11 1.37,-2.23 2.03,-3.36 0.23,-0.4 0.45,-0.8 0.67,-1.2 0.42,-0.73 0.84,-1.47 1.24,-2.21 0.26,-0.47 0.5,-0.95 0.75,-1.43 0.36,-0.67 0.72,-1.34 1.06,-2.02 0.25,-0.5 0.49,-1 0.73,-1.51 0.32,-0.66 0.65,-1.32 0.96,-1.99 0.24,-0.51 0.46,-1.02 0.69,-1.53 0.3,-0.66 0.61,-1.33 0.89,-1.99 0.22,-0.52 0.43,-1.04 0.64,-1.56 0.28,-0.67 0.56,-1.33 0.82,-2 0.21,-0.52 0.39,-1.04 0.59,-1.57 0.26,-0.68 0.52,-1.35 0.76,-2.03 0.19,-0.52 0.36,-1.05 0.54,-1.58 0.21,-0.61 0.42,-1.22 0.62,-1.83 l -13.3,-5.76 c -0.26,-0.08 -0.41,-0.35 -0.33,-0.61 0.25,-0.87 0.48,-1.73 0.7,-2.6 0,0 0,-0.01 0,-0.01 0.22,-0.86 0.43,-1.72 0.62,-2.57 0.03,-0.13 0.05,-0.26 0.08,-0.39 0.16,-0.73 0.32,-1.45 0.46,-2.17 0.05,-0.24 0.09,-0.47 0.13,-0.7 0.11,-0.59 0.22,-1.18 0.32,-1.76 -0.01,-0.06 -0.01,-0.11 0,-0.17 0.04,-0.19 0.17,-0.35 0.36,-0.39 l 15.69,-3.7 c 0.09,-0.7 0.17,-1.4 0.24,-2.1 0.05,-0.44 0.11,-0.88 0.15,-1.31 0.08,-0.82 0.14,-1.64 0.2,-2.46 0.03,-0.37 0.07,-0.74 0.09,-1.11 0.07,-1.09 0.12,-2.18 0.15,-3.26 0,-0.09 0.01,-0.19 0.01,-0.28 0.04,-1.18 0.05,-2.36 0.04,-3.53 0,-0.27 -0.01,-0.54 -0.02,-0.82 -0.01,-0.89 -0.03,-1.78 -0.06,-2.67 -0.02,-0.42 -0.05,-0.83 -0.07,-1.24 -0.04,-0.73 -0.07,-1.47 -0.13,-2.2 -0.04,-0.48 -0.09,-0.95 -0.13,-1.43 -0.06,-0.66 -0.12,-1.32 -0.19,-1.98 -0.06,-0.51 -0.13,-1.02 -0.2,-1.53 -0.07,-0.54 -0.14,-1.08 -0.22,-1.62 l -15.71,1.22 c -0.01,0 -0.03,0 -0.04,0 -0.03,0 -0.05,-0.01 -0.07,-0.01 -0.03,0 -0.06,-0.01 -0.09,-0.02 -0.01,0 -0.02,-0.01 -0.04,-0.02 -0.09,-0.04 -0.17,-0.1 -0.22,-0.19 -0.03,-0.05 -0.05,-0.1 -0.06,-0.16 -0.22,-1.03 -0.45,-2.06 -0.71,-3.06 -0.11,-0.44 -0.24,-0.86 -0.36,-1.3 -0.15,-0.56 -0.3,-1.12 -0.46,-1.66 0,-0.01 0,-0.01 0,-0.02 -0.02,-0.08 -0.02,-0.17 0,-0.26 0,-0.01 0,-0.01 0,-0.02 0.01,-0.02 0,-0.04 0.01,-0.05 0.01,-0.01 0.01,-0.03 0.02,-0.04 0.03,-0.06 0.08,-0.1 0.12,-0.14 0,0 0,0 0,0 0,0 0,0 0,0 0.02,-0.02 0.03,-0.04 0.05,-0.06 l 13.97,-9.1 c -0.15,-0.44 -0.3,-0.87 -0.46,-1.3 -0.16,-0.46 -0.33,-0.92 -0.5,-1.37 -0.21,-0.55 -0.43,-1.08 -0.66,-1.62 -0.17,-0.43 -0.34,-0.86 -0.53,-1.28 -0.24,-0.56 -0.5,-1.11 -0.76,-1.67 -0.18,-0.38 -0.35,-0.77 -0.53,-1.15 -0.3,-0.62 -0.62,-1.23 -0.94,-1.84 -0.16,-0.3 -0.3,-0.6 -0.46,-0.9 -0.48,-0.9 -0.99,-1.78 -1.5,-2.65 -0.07,-0.11 -0.14,-0.22 -0.21,-0.33 -0.46,-0.75 -0.92,-1.5 -1.41,-2.23 -0.2,-0.3 -0.41,-0.59 -0.61,-0.88 -0.36,-0.53 -0.73,-1.07 -1.11,-1.59 -0.25,-0.34 -0.5,-0.66 -0.76,-0.99 -0.31,-0.41 -0.62,-0.82 -0.94,-1.22 l -10.09,5.61 -0.29,0.42 c -0.12,0.17 -0.34,0.25 -0.55,0.19 l -0.17,-0.05 -3.58,1.98 c -0.05,0.04 -0.1,0.07 -0.16,0.09 -0.02,0.01 -0.03,0.01 -0.05,0.01 -0.04,0.01 -0.07,0.02 -0.11,0.02 -0.01,0 -0.01,0 -0.01,0 -0.04,0 -0.08,-0.01 -0.12,-0.03 -0.02,-0.01 -0.05,-0.01 -0.07,-0.02 -0.06,-0.03 -0.12,-0.07 -0.16,-0.12 -1.48,-1.63 -3.08,-3.18 -4.75,-4.59 -0.21,-0.17 -0.23,-0.48 -0.07,-0.69 l 0.08,-0.1 9.63,-13.75 c 0.02,-0.03 0.04,-0.05 0.06,-0.07 l 0.76,-1.09 c -4.66,-2.59 -17.51,-7.48 -20.86,-8.54 l -9.97,13.38 c -0.12,0.16 -0.33,0.23 -0.52,0.18 -2.58,-0.64 -5.25,-1.1 -7.93,-1.37 -0.14,-0.01 -0.26,-0.08 -0.35,-0.19 -0.08,-0.11 -0.12,-0.25 -0.09,-0.38 l 2.46,-14.3 c -9.08,-0.33999 -18.44,1.05 -27.81,4.14 l -1.39,13.42 0.06,0.17 c 0.09,0.26 -0.05,0.54 -0.31,0.63 -2.18,0.74 -4.32,1.58 -6.37,2.48 -1.61,0.7 -3.24,1.47 -4.85,2.32 -0.07,0.04 -0.14,0.05 -0.21,0.05 -0.01,0 -0.01,0 -0.02,0 -0.01,0 -0.03,-0.01 -0.04,-0.01 -0.06,-0.01 -0.12,-0.02 -0.17,-0.05 -0.02,-0.01 -0.04,-0.02 -0.06,-0.03 -0.07,-0.04 -0.13,-0.1 -0.17,-0.17 l -0.23,-0.43 -4.68,-10.06 c -8.629998,4.99 -16.729998,11.31 -24.089998,18.78 l 4.07,11.1 c 0.06,0.18 0.02,0.37 -0.1,0.51 -2.93,3.15 -5.71,6.51 -8.25,10.01 -0.13,0.18 -0.36,0.25 -0.57,0.17 -0.02,-0.01 -0.12,-0.04 -0.13,-0.05 l -9.11,-4.63 c -1.12,1.64 -2.16,3.22 -3.16,4.83 -3.91,6.27 -7.28,12.85 -10,19.56 l 9.04,4.92 c 0.22,0.12 0.31,0.38 0.23,0.61 -1.21,3.18 -2.26,6.47 -3.12,9.76 -0.05,0.2 -0.21,0.37 -0.42,0.39 l -11.23,1.33 c -2.14,8.81 -3.2,17.65 -3.14,26.3 l 11.18,-1.62 c 0.14,-0.02 0.28,0.02 0.39,0.11 0.11,0.09 0.17,0.22 0.18,0.36 0.09,2.35 0.28,4.66 0.58,6.86 0.09,0.7 0.19,1.38 0.3,2.07 0.03,0.18 -0.04,0.36 -0.19,0.47 l -10.86,8.43 c 1.63,8.62 4.46,16.57 8.42,23.65 l 11.47,-7.25 c 0.23,-0.14 0.53,-0.08 0.68,0.15 1.27,1.94 2.65,3.77 4.09,5.43 0.09,0.1 0.13,0.23 0.12,0.37 -0.01,0.14 -0.07,0.26 -0.18,0.34 l -0.1,0.09 -6.95,13.46 c 3.7,3.98 7.89,7.45 12.48,10.32 3.01,1.88 6.18,3.49 9.42,4.8 l 7.62,-13.54 c 0.09,-0.26 0.37,-0.4 0.63,-0.31 2.97,0.98 6.019998,1.69 9.059998,2.12 0.24,0.03 0.42,0.24 0.43,0.48 l 0.03,2.31 c 0,0 0,0 0,0.01 l 0.16,13.01 1.39,0.39 c 1.16,0.09 2.32,0.15 3.48,0.18 0.59,0.02 1.18,0 1.78,0 0.58,0 1.15,0.01 1.73,0 0.67,-0.02 1.34,-0.06 2.01,-0.09 0.51,-0.03 1.03,-0.04 1.54,-0.08 0.63,-0.04 1.26,-0.12 1.89,-0.18 0.57,-0.05 1.13,-0.1 1.7,-0.17 0.59,-0.07 1.19,-0.17 1.78,-0.25 0.61,-0.09 1.22,-0.16 1.83,-0.27 0.57,-0.09 1.14,-0.21 1.71,-0.32 0.64,-0.12 1.28,-0.23 1.92,-0.37 0.56,-0.12 1.12,-0.26 1.68,-0.39 0.65,-0.15 1.3,-0.3 1.96,-0.47 0.56,-0.15 1.13,-0.31 1.69,-0.47 0.53,-0.15 1.07,-0.3 1.6,-0.46 l -0.6,-15.56 c 0,-0.01 0,-0.1 0,-0.11 0,-0.17 0.09,-0.33 0.24,-0.42 0.12,-0.08 0.27,-0.09 0.41,-0.05 3.9,-1.35 7.76,-3.03 11.46,-4.98 0.12,-0.06 0.26,-0.07 0.38,-0.03 0.13,0.04 0.23,0.13 0.29,0.25 l 6.33,12.76 z m -39.30999,-20.24 c -5.23,0 -10.37,-0.84 -15.290004,-2.59 -2.680004,-0.94 -5.290004,-2.18 -7.760004,-3.67 -25.1,-15.19 -29.74,-53.59 -10.37,-85.61 17.01,-28.09 47.220008,-42.61 71.859998,-34.55 0.02,0 0.05,0.01 0.07,0.02 3.02,0.99 5.96,2.34 8.71,4.01 12.18,7.37 19.95,20.35 21.89001,36.54 1.94,16.15 -2.16,33.57 -11.54,49.06 -13.9,22.98 -36.38,36.79 -57.57,36.79 z"
     id="path24-1"
     style="fill:#45c8da" /><path
     class="st33"
     d="m 107.4725,114.08049 4.08,8.78 c 1.33,-0.68 2.67,-1.32 3.99,-1.91 z"
     id="path25-4"
     style="fill:#3fcadd" /><path
     class="st27"
     d="m 95.362502,272.09049 -7.42,13.15 c 1.61,0.62 3.22,1.17 4.8,1.64 0.85,0.25 1.68,0.48 2.47,0.68 l 8.580008,-11.77 -0.02,-1.72 c -2.82,-0.44 -5.650008,-1.1 -8.410008,-1.98 z"
     id="path26-2"
     style="fill:#039bb3" /><path
     class="st34"
     d="m 181.1925,128.31049 c 1.06001,0.97 2.08001,1.99 3.06001,3.05 l 2.49,-1.37 z"
     id="path27-3"
     style="fill:#4acada" /><path
     class="st27"
     d="m 135.4725,286.80049 c -8.40999,2.59 -16.72999,3.84 -24.85999,3.72 l 6.26,1.74 c 0.03,0.01 0.05,0.02 0.08,0.03 7.78,0.24 15.8,-0.8 23.88,-3.09 z"
     id="path28-2"
     style="fill:#039bb3" /><path
     class="st32"
     d="m 188.50251,259.34049 -6.65001,-2.32 c -8.08,8.57 -17.07999,15.7 -26.78,21.21 l 7.92,1.44 c 9.24,-5.37 17.82,-12.21 25.51001,-20.33 z"
     id="path29-2"
     style="fill:#0086a1" /><path
     class="st35"
     d="m 207.4425,199.82049 -8.33,-7 c -0.54,3.01 -1.24,6.08 -2.1,9.15 l 8.47,3.67 c 0.74,-1.4 1.68,-4.79 1.96,-5.82 z"
     id="path30-1"
     style="fill:#009cb3" /><path
     class="st36"
     d="m 222.1625,166.02049 -6.88999,-5.35 c 1.22,8.66 1.23,17.74 0.04,27.01 l 6.12,5.89 c 1.5,-9.42 1.75,-18.68 0.72999,-27.55 z"
     id="path31-6"
     style="fill:#33bccc" /><path
     class="st37"
     d="m 205.7625,159.79049 -8.07,-4.04 c 0.42,1.48 0.80001,3.01 1.14,4.58 z"
     id="path32"
     style="fill:#43ccd4" /><path
     class="st38"
     d="m 201.7925,125.96049 c 4.19,5.76 7.52001,12.3 9.92,19.48 l 7.26,5.05 c -1.98,-6.5 -4.74,-12.53 -8.2,-17.94 z"
     id="path33"
     style="fill:#4ac6d8" /><path
     class="st39"
     d="m 210.4525,209.00049 c -3.15,9.63 -7.54,18.99 -13.06,27.84 l -0.15,0.24 c -0.05,0.09 -0.11,0.17 -0.16,0.26 l 5.62,3.98 c 0.48,-0.73 0.96,-1.47 1.42,-2.22 5.28,-8.46 9.51,-17.38 12.6,-26.54 z"
     id="path34"
     style="fill:#039bb2" /></g></svg>
